<?xml version="1.0" standalone="no"?>
<!DOCTYPE svg PUBLIC "-//W3C//DTD SVG 20010904//EN"
 "http://www.w3.org/TR/2001/REC-SVG-20010904/DTD/svg10.dtd">
<svg version="1.0" xmlns="http://www.w3.org/2000/svg"
 width="700.000000pt" height="700.000000pt" viewBox="0 0 700.000000 700.000000"
 preserveAspectRatio="xMidYMid meet">
<metadata>
Created by potrace 1.11, written by Peter Selinger 2001-2013
</metadata>
<g transform="translate(0.000000,700.000000) scale(0.100000,-0.100000)"
fill="#000000" stroke="none">
<path d="M0 3500 l0 -3500 3500 0 3500 0 0 3500 0 3500 -3500 0 -3500 0 0
-3500z m4040 1901 c35 -45 60 -57 89 -41 17 8 22 6 32 -12 7 -13 31 -41 55
-63 25 -24 46 -56 54 -80 17 -62 25 -403 11 -536 -7 -62 -27 -204 -46 -314
-78 -454 -89 -594 -73 -875 13 -222 8 -242 -69 -287 -46 -27 -53 -28 -207 -31
-178 -4 -224 4 -279 49 -28 23 -38 41 -47 84 -11 54 -6 120 11 131 5 3 23 3
39 -1 29 -6 30 -8 30 -66 l0 -60 46 -20 c41 -19 62 -20 192 -17 117 3 154 7
180 21 l33 18 -8 132 c-10 168 -7 403 7 526 6 53 31 215 55 361 25 146 49 306
55 355 11 97 13 376 4 412 -8 29 -81 41 -286 50 -130 5 -158 4 -162 -8 -3 -8
-9 -223 -13 -479 l-8 -465 -32 161 c-47 234 -65 396 -67 598 l-1 178 -49 -6
c-27 -3 -53 -9 -58 -14 -12 -12 -11 -341 2 -452 6 -52 27 -189 46 -305 52
-309 64 -413 71 -587 l6 -158 -26 0 c-14 0 -32 -2 -40 -5 -11 -5 -15 20 -20
143 -8 171 -24 306 -72 587 -49 289 -58 381 -59 560 0 298 15 398 66 423 15 7
40 28 54 47 32 43 53 44 109 5 56 -38 84 -38 121 1 44 46 59 52 93 35 27 -15
31 -14 67 14 22 16 44 29 51 29 6 1 25 -17 43 -38z m1880 -182 c64 -19 141
-98 168 -171 28 -74 42 -163 42 -260 l0 -78 -49 0 -49 0 -7 103 c-10 137 -35
217 -85 267 -84 84 -205 80 -292 -10 -55 -57 -76 -115 -85 -235 -7 -97 13
-186 59 -262 17 -29 110 -143 206 -255 96 -112 187 -222 204 -246 77 -111 118
-245 118 -392 0 -256 -128 -425 -334 -438 -228 -14 -356 130 -373 420 l-6 108
56 0 57 0 0 -94 c0 -227 94 -345 264 -334 52 3 74 10 107 33 76 54 129 184
129 317 0 64 -34 189 -70 257 -17 32 -115 156 -218 277 -204 239 -242 292
-274 381 -26 73 -35 225 -19 319 42 243 224 361 451 293z m-4154 -37 c56 -29
119 -102 146 -171 20 -51 22 -77 26 -289 4 -213 2 -238 -17 -301 -29 -97 -82
-170 -247 -342 -165 -172 -212 -230 -251 -314 -27 -58 -28 -67 -31 -242 l-4
-183 63 0 62 0 -66 -50 c-57 -43 -72 -50 -112 -50 l-46 0 3 253 3 254 42 84
c35 70 65 109 180 232 205 219 251 275 286 347 l32 65 3 195 c4 219 -5 286
-48 354 -37 58 -96 86 -179 86 -152 0 -216 -87 -228 -312 l-6 -108 -48 0 -49
0 0 93 c1 217 67 356 196 407 69 28 230 24 290 -8z m-716 -967 l0 -975 -55 0
-55 0 0 850 0 850 -126 0 -125 0 3 27 c2 23 10 29 48 38 25 7 62 19 82 28 47
20 122 89 138 127 11 26 18 30 51 30 l39 0 0 -975z m1972 942 c69 -34 120 -90
150 -166 22 -54 23 -68 23 -361 0 -298 -1 -306 -24 -365 -16 -41 -40 -76 -76
-112 -71 -69 -119 -83 -287 -83 l-128 0 0 -415 0 -415 -27 0 c-24 0 -31 8 -53
58 l-25 57 -3 918 -2 919 197 -4 c193 -3 199 -4 255 -31z m2003 5 c95 -43 152
-122 175 -238 8 -38 11 -130 8 -250 l-3 -189 -34 -69 c-25 -51 -46 -78 -86
-109 l-54 -41 52 -28 c58 -32 77 -52 112 -119 39 -74 48 -157 43 -392 -4 -183
-8 -220 -26 -270 -39 -107 -94 -164 -195 -198 -43 -15 -86 -18 -244 -19 l-193
0 0 976 0 976 198 -4 c180 -3 201 -5 247 -26z m-3045 -1872 l0 -50 -147 0
-148 1 29 22 c83 63 118 77 194 77 l72 0 0 -50z"/>
<path d="M2680 4626 l0 -466 95 0 c135 0 189 14 241 62 73 67 79 98 79 414 l0
270 -30 59 c-20 40 -45 69 -73 90 -43 29 -47 30 -178 33 l-134 4 0 -466z"/>
<path d="M4680 4701 l0 -391 123 0 c135 0 179 13 229 66 58 63 72 114 76 294
5 188 -8 266 -56 334 -46 66 -86 80 -239 84 l-133 4 0 -391z"/>
<path d="M4680 3775 l0 -435 128 0 c156 0 195 10 249 64 67 67 78 119 78 371
0 254 -11 305 -80 371 -54 52 -100 64 -254 64 l-121 0 0 -435z"/>
</g>
</svg>
