<svg id="Layer_1" data-name="Layer 1" xmlns="http://www.w3.org/2000/svg" viewBox="0 0 556.47 118.32">
  <defs>
    <style>
      .cls-1 {
        fill: #575757;
      }

      .cls-2 {
        fill: #fff;
      }

      .cls-3, .cls-4 {
        fill: #019763;
      }

      .cls-3, .cls-5 {
        fill-rule: evenodd;
      }

      .cls-5 {
        fill: #9a3422;
      }

      .cls-6 {
        fill: #c32127;
      }
    </style>
  </defs>
  <title>12-pubs-logo</title>
  <g>
    <path class="cls-1" d="M106.57,87.9c1.19-1.68,1.41.53,2.84-.78,2.46-2.27.48-7.62,7.31-8.32s5.39-4.24,9.26-6.38,9.17.42,13.78-2c3.69-1.93,4.1,1.14,11.93-1.21,1.53-.46.81,3.21-4.16,4-1.53.25-1.82,2.13-4.32,2.39-1,.09-1.86,2.71-.84,4.16s1.82-3.1,4.13-3.33,3.4-.93,4.07-2c1.27-2,4.83-3.12,4.79-6.42s-6.79-.86-9.12-3.73c3.71-6.17,2.25-10.33-2.6-16.83,1.91-1.3,1.22-2.39,2.27-3.54.82-.9,1.27-.84,2.2-1.55s.79-4-.76-3.39c-5.35,2.18-5.72,1.23-7.47,2.07a17.26,17.26,0,0,0-2.58-1.53,3.41,3.41,0,0,1-1.78-2.7,8.19,8.19,0,0,0-2.38-4.71c-1.54-1.35-1.31-.5-.42.58a9.14,9.14,0,0,1,1.95,4.36c.08,1.31-.29,1.43-.93,1.47a5.13,5.13,0,0,0-2.08-2c-1.29-.6-1-.08-.18.47A7.29,7.29,0,0,1,133,38.52a16.17,16.17,0,0,0-4.21.51l-.62.18-.17,0a1.64,1.64,0,0,1-1.92-.42,4,4,0,0,0-2-1.37c-1-.35-2-.25-.26.61s2.29,2.16.63,3l.08,0c-.68.42-1.36.87-2,1.31-2.07.79-2.7-1.34-5.58-2.36-1-.35-1.65-.17-.21.51,2.7,1.28,3.82,3.29,2.13,3.91h0a7.63,7.63,0,0,1-5.59.47c-5.82-1.83-2.07.24-.22.71,6.18,1.57,7.79-2.29,15-5.23a11.61,11.61,0,0,1,5.45-1c0,.09.09.18.12.27.31.89.06,1-.39,1.17-.27,0-.54.1-.83.17a1,1,0,0,1-1-.21,2.57,2.57,0,0,0-.75-.54c-.26-.12-.58.13-.21.38.69.45.92.67.42,1a1.71,1.71,0,0,0-.23.13h0c-.78.45-1.5,1-2.23,1.51-1.1.54-1-.28-2.5-.81-.5-.17-.54,0-.11.26,1.2.66,1.4,1.27.79,1.62a4.65,4.65,0,0,1-2.94.32c-2.14-.46-1.51.24-.39.52,3.76,1,4.12-1,8.5-2.85a5.61,5.61,0,0,1,5.91.59c-.06.09-.11.18-.16.27-1-.67-2.24-.36-3.22-.19-1.24.22-.9.93-.19,1.63s1.63.88,3,.25l0,0a11.46,11.46,0,0,0,1.48,4.38c3.87,7.7-.76,11.64-5.14,11.5-3.89-.12-9.12-.79-12.86,2.1-1.68,1.14-2.17,1.21-3.55.58s-1.93.2-1.57,1.61c.44,1.7,1.87,1.58,1.45,3.47-1,3.66-.14,6.67-3.34,7-4.43.45-2.53,8.32-4.87,9.08-1.16.38-.79,1.47-1.84,1.06-1.73-.68-2.52.42-2.67,2.67S105.38,89.57,106.57,87.9Zm31.2-46.54a6.62,6.62,0,0,0-1.73-.61,2.41,2.41,0,0,1-1.82-1.31A7,7,0,0,1,137.77,41.36Z" transform="translate(-38.03 -16.91)"/>
    <path class="cls-1" d="M516,88.24c-.16-2.25-1-3.35-2.68-2.67-1,.41-.67-.68-1.84-1.06-2.34-.76-.44-8.63-4.87-9.08-3.2-.32-2.33-3.33-3.34-7-.42-1.89,1-1.77,1.45-3.47.36-1.41-.26-2.22-1.57-1.61s-1.87.56-3.55-.58c-3.74-2.89-9-2.22-12.86-2.1-4.38.14-9-3.8-5.14-11.5a11.46,11.46,0,0,0,1.48-4.38l0,0c1.38.63,2.29.46,3-.25s1.05-1.41-.19-1.63c-1-.17-2.26-.48-3.22.19-.05-.09-.1-.18-.16-.27a5.61,5.61,0,0,1,5.91-.59c4.38,1.84,4.74,3.81,8.5,2.85,1.12-.28,1.75-1-.39-.52a4.66,4.66,0,0,1-2.94-.32c-.61-.35-.41-1,.79-1.62.43-.24.39-.43-.11-.26-1.5.53-1.4,1.35-2.5.81-.73-.51-1.45-1.06-2.23-1.51h0a1.71,1.71,0,0,0-.23-.13c-.5-.32-.27-.54.42-1,.37-.25.05-.5-.21-.38a2.57,2.57,0,0,0-.75.54,1,1,0,0,1-1,.21c-.29-.07-.56-.12-.83-.17-.45-.15-.7-.28-.39-1.17,0-.09.08-.18.12-.27a11.61,11.61,0,0,1,5.45,1c7.25,2.94,8.86,6.8,15,5.23,1.85-.47,5.61-2.54-.22-.71a7.63,7.63,0,0,1-5.59-.47h0c-1.69-.62-.57-2.63,2.13-3.91,1.44-.68.78-.86-.21-.51-2.88,1-3.51,3.15-5.58,2.36-.68-.44-1.36-.89-2-1.31l.08,0c-1.66-.82-1.08-2.12.63-3s.75-1-.26-.61a4,4,0,0,0-2.05,1.37,1.64,1.64,0,0,1-1.92.42l-.17,0-.62-.18a16.17,16.17,0,0,0-4.21-.51A7.29,7.29,0,0,1,488.66,37c.8-.55,1.11-1.07-.18-.47a5.13,5.13,0,0,0-2.08,2c-.64,0-1-.16-.93-1.47a9.14,9.14,0,0,1,1.95-4.36c.89-1.08,1.12-1.93-.42-.58a8.19,8.19,0,0,0-2.38,4.71,3.41,3.41,0,0,1-1.78,2.7,17.26,17.26,0,0,0-2.58,1.53c-1.75-.84-2.12.11-7.47-2.07-1.55-.63-1.69,2.68-.76,3.39s1.38.65,2.2,1.55c1,1.15.36,2.24,2.27,3.54-4.84,6.5-6.31,10.66-2.59,16.83-2.34,2.87-9.08.43-9.13,3.73s3.52,4.45,4.79,6.42c.67,1,1.77,1.73,4.07,2s3.12,4.77,4.13,3.33.12-4.07-.84-4.16c-2.5-.26-2.79-2.14-4.32-2.39-5-.8-5.69-4.47-4.16-4,7.83,2.35,8.24-.72,11.93,1.21,4.61,2.41,9.77-.24,13.78,2s2.44,5.69,9.26,6.38,4.85,6,7.32,8.32c1.42,1.31,1.64-.9,2.83.78S516.12,90.49,516,88.24Zm-30.05-48.8a2.39,2.39,0,0,1-1.82,1.31,6.75,6.75,0,0,0-1.73.61A7,7,0,0,1,485.92,39.44Z" transform="translate(-38.03 -16.91)"/>
    <g>
      <path class="cls-2" d="M184.34,76.8c.23,0,.77.06,1.62.17a5.47,5.47,0,0,0,.92.1q2.09,0,2.4-3.27.16-1.86.17-10.55a2.51,2.51,0,0,0-.54-1.84A2.85,2.85,0,0,0,187,60.9a9.18,9.18,0,0,0-1,.08c-.33,0-.61,0-.85,0a2,2,0,0,1-1.35-.45,1.49,1.49,0,0,1-.51-1.18,2.21,2.21,0,0,1,.78-1.55,6.74,6.74,0,0,1,2.18-1.36,37.28,37.28,0,0,1,14.7-2.93,7.19,7.19,0,0,1,3.09.5,1.69,1.69,0,0,1,1,1.6,1.45,1.45,0,0,1-.32,1,3.78,3.78,0,0,1-1.27.77c-1,.44-1.58,1-1.73,1.61a66.87,66.87,0,0,0-.34,7.43c.13,4.36.2,6.7.22,7a8.78,8.78,0,0,0,.19,1.3,2.63,2.63,0,0,0,1.1,1.78,6.48,6.48,0,0,0,2.83.59c1.53.06,2.3.69,2.3,1.88s-1.08,2-3.25,2.44a52.43,52.43,0,0,1-9.28.81,46.16,46.16,0,0,1-5.91-.37,27.25,27.25,0,0,1-5.42-1.2c-1.25-.45-1.88-1.14-1.88-2.05a1.63,1.63,0,0,1,.61-1.27A2.32,2.32,0,0,1,184.34,76.8Z" transform="translate(-38.03 -16.91)"/>
      <path class="cls-2" d="M229.23,81.56H212.6c-1.47,0-2.2-.41-2.2-1.24a1.81,1.81,0,0,1,.47-1.19q.47-.54,3-2.94a39.39,39.39,0,0,0,7-8.28A6.76,6.76,0,0,0,222,64.54a2.66,2.66,0,0,0-.71-1.94,2.56,2.56,0,0,0-1.91-.72,3.85,3.85,0,0,0-1.71.3,22,22,0,0,0-2.58,2,2.14,2.14,0,0,1-1.42.44,3,3,0,0,1-2.11-.89,2.6,2.6,0,0,1-1-1.94,3.9,3.9,0,0,1,.88-2.16,10.71,10.71,0,0,1,2.32-2.28,19.58,19.58,0,0,1,11.7-3.79,15.76,15.76,0,0,1,8.08,1.88,6.69,6.69,0,0,1,3.2,5.62q0,4.28-5.91,9.28-2.1,1.76-2.1,2.64a1.41,1.41,0,0,0,.64,1.16,2.52,2.52,0,0,0,1.54.47,5.3,5.3,0,0,0,3.83-1.66,9.8,9.8,0,0,1,1.13-1,1.54,1.54,0,0,1,.77-.17c1.44,0,2.15,1.22,2.15,3.66a10.7,10.7,0,0,1-.69,3.71,10.32,10.32,0,0,1-1.9,3.25,3.65,3.65,0,0,1-2.78,1.47,1.7,1.7,0,0,1-1-.26,3.68,3.68,0,0,1-.83-1,2.25,2.25,0,0,0-.86-.88A4.3,4.3,0,0,0,229.23,81.56Z" transform="translate(-38.03 -16.91)"/>
      <path class="cls-2" d="M257.54,70.06V57.21a8.67,8.67,0,0,0-.35-3.16c-.22-.45-.84-.81-1.85-1.09-1.47-.42-2.2-1.15-2.2-2.19a1.88,1.88,0,0,1,.93-1.69,5.06,5.06,0,0,1,2.68-.58c.39,0,1.36,0,2.91.07h1.47c2.7,0,4.28,0,4.75-.06s2.12-.17,5-.43a24.55,24.55,0,0,1,2.58-.15,15.21,15.21,0,0,1,7.14,1.64,9.45,9.45,0,0,1,5.44,9,9.65,9.65,0,0,1-3.81,8,13.62,13.62,0,0,1-8.69,2.81c-.87,0-1.92-.06-3.18-.17-.67-.05-1.08-.07-1.24-.07-.48,0-.71.27-.71.8v.15l.17,4a3.35,3.35,0,0,0,.43,1.74A4.2,4.2,0,0,0,270.53,77c1.06.57,1.59,1.18,1.59,1.85,0,1-.79,1.82-2.35,2.37a20.85,20.85,0,0,1-6.64.83q-9,0-9-3.1a1.51,1.51,0,0,1,.39-1.12,8.44,8.44,0,0,1,1.83-1.13,1.8,1.8,0,0,0,1-1.29C257.44,74.85,257.5,73.07,257.54,70.06Zm11-16v8.31c0,.63.14,1,.41,1.14a4.59,4.59,0,0,0,4.5-.56c1.06-.86,1.59-2.31,1.59-4.34a5.42,5.42,0,0,0-1.86-4.6,4.52,4.52,0,0,0-2.83-.9C269.15,53.16,268.55,53.48,268.55,54.11Z" transform="translate(-38.03 -16.91)"/>
      <path class="cls-2" d="M301,58.63V71.87q0,4.25,2.8,4.25a2.73,2.73,0,0,0,1.4-.41,2.25,2.25,0,0,0,1-1,15.46,15.46,0,0,0,.54-5.22,36,36,0,0,0-.27-5.47,1.82,1.82,0,0,0-.34-.89,3.51,3.51,0,0,0-.93-.65,2.14,2.14,0,0,1-1.39-1.86c0-1,.79-1.71,2.39-2.1a37.14,37.14,0,0,1,9-1.12c1.65,0,2.47.87,2.47,2.61,0,.18,0,.55,0,1.1,0,.78-.05,1.74-.07,2.86V74.75c0,.55.47,1.06,1.42,1.51A1.85,1.85,0,0,1,320.1,78q0,2.2-5.2,3.4a26.18,26.18,0,0,1-5.91.71,3.29,3.29,0,0,1-1.6-.27,1.32,1.32,0,0,1-.5-1c-.08-1-.39-1.52-.93-1.52a1.08,1.08,0,0,0-.53.14c-.17.09-.66.42-1.49,1a9.25,9.25,0,0,1-5.3,1.68q-4.69,0-6.62-2.71-1.63-2.27-1.64-7.64,0-2,0-3.42V67.15a9.34,9.34,0,0,0-.38-3.09,3,3,0,0,0-1.38-1.55,4.27,4.27,0,0,1-1.21-.78,1.17,1.17,0,0,1-.26-.8c0-1.24.94-2.06,2.81-2.47a44.55,44.55,0,0,1,9.58-1.05C300.53,57.41,301,57.82,301,58.63Z" transform="translate(-38.03 -16.91)"/>
      <path class="cls-2" d="M334.81,49.69l-.32,9.53v.53c0,.33.1.49.32.49a3.24,3.24,0,0,0,1-.66,9.74,9.74,0,0,1,6.3-2.34,8.54,8.54,0,0,1,6,2.47,10.62,10.62,0,0,1,3.27,8.08,14.1,14.1,0,0,1-14.24,14.43,14.86,14.86,0,0,1-4.58-.65,18.74,18.74,0,0,1-4.46-2.21,1.32,1.32,0,0,0-.58-.22,7.21,7.21,0,0,0-1.52.47,4.19,4.19,0,0,1-1.49.24c-1,0-1.51-.32-1.51-1a2.7,2.7,0,0,1,.12-.74,17.48,17.48,0,0,0,.66-3.93c.11-1.56.17-4,.17-7.42V60.05a14.77,14.77,0,0,0-.19-3.15,1.68,1.68,0,0,0-1.1-1,5.21,5.21,0,0,1-1.76-1.07,1.85,1.85,0,0,1-.49-1.33c0-1.09,1.16-2.15,3.49-3.2a26.79,26.79,0,0,1,4.75-1.45,23,23,0,0,1,4.88-.62C334.4,48.23,334.82,48.72,334.81,49.69Zm2.1,14.9a2.11,2.11,0,0,0-1.91.9,5.59,5.59,0,0,0-.46,2.79,49.19,49.19,0,0,0,.39,7.74A2,2,0,0,0,337,77.87a3,3,0,0,0,2.71-1.51,8.47,8.47,0,0,0,.93-4.4q0-4.24-1.56-6.2A2.85,2.85,0,0,0,336.91,64.59Z" transform="translate(-38.03 -16.91)"/>
      <path class="cls-2" d="M362.91,57.24a23.45,23.45,0,0,1,4,.54,6.22,6.22,0,0,0,.93.09,5.63,5.63,0,0,0,1.61-.44,2.93,2.93,0,0,1,1-.22,3.09,3.09,0,0,1,2.27,1.45,10.47,10.47,0,0,1,1.51,2.51,6.2,6.2,0,0,1,.59,2.37,2.12,2.12,0,0,1-.69,1.62,2.33,2.33,0,0,1-1.7.65,2.92,2.92,0,0,1-1.53-.41,16,16,0,0,1-2.16-1.84,4.29,4.29,0,0,0-2.59-1.51,1.65,1.65,0,0,0-1.19.5,1.63,1.63,0,0,0-.5,1.18c0,.8.77,1.55,2.3,2.25A21.09,21.09,0,0,1,373,70a6.16,6.16,0,0,1,1.86,4.54,6.85,6.85,0,0,1-3,5.66,10,10,0,0,1-6.28,2,31,31,0,0,1-3.46-.32c-1.58-.18-2.47-.26-2.66-.26a4.16,4.16,0,0,0-.74.07,9.82,9.82,0,0,1-1,.1,2.63,2.63,0,0,1-1.81-.59,8.3,8.3,0,0,1-1.86-2.84,8.57,8.57,0,0,1-.85-3.34c0-1.5.58-2.24,1.76-2.24a2,2,0,0,1,1.25.45,28.85,28.85,0,0,1,2.41,2.4,8.83,8.83,0,0,0,1.66,1.48,2.65,2.65,0,0,0,1.42.4,1.91,1.91,0,0,0,1.29-.42A1.44,1.44,0,0,0,363.5,76c0-.73-.63-1.4-1.88-2a17.92,17.92,0,0,1-5.68-4,7.12,7.12,0,0,1-1.74-4.74,7.48,7.48,0,0,1,1.78-5A8.59,8.59,0,0,1,362.91,57.24Z" transform="translate(-38.03 -16.91)"/>
      <path class="cls-2" d="M404.6,57.21a13.54,13.54,0,0,1,7.84,2.32,12.37,12.37,0,0,1,3.88,4.33,12,12,0,0,1,1.52,5.81q0,5.3-4.86,9a17.07,17.07,0,0,1-10.63,3.54,13.44,13.44,0,0,1-9.45-3.32,10.88,10.88,0,0,1-3.51-8.4,11.81,11.81,0,0,1,4.3-9.43A16.17,16.17,0,0,1,404.6,57.21Zm-2,5.65a2.09,2.09,0,0,0-1.72.79,3.19,3.19,0,0,0-.65,2.11,19.63,19.63,0,0,0,.55,4,29.09,29.09,0,0,0,1.31,4.49,2.59,2.59,0,0,0,2.46,2c1.45,0,2.18-.92,2.18-2.76a23.5,23.5,0,0,0-.55-4.67,18.81,18.81,0,0,0-1.34-4.24A2.56,2.56,0,0,0,402.65,62.86Z" transform="translate(-38.03 -16.91)"/>
      <path class="cls-2" d="M434,61.78h3a2,2,0,0,1,1.09.23.79.79,0,0,1,.28.77l-.2,2.91a1.91,1.91,0,0,1-.27,1.11,1.41,1.41,0,0,1-1,.23c-.12,0-.39,0-.81,0l-.73,0a1.42,1.42,0,0,0-1.39.67,5.89,5.89,0,0,0-.37,2.55,14.48,14.48,0,0,0,.56,4.32,2.27,2.27,0,0,0,.64,1.12,3.77,3.77,0,0,0,1.36.62c1.44.42,2.15,1.21,2.15,2.37s-.83,2.1-2.5,2.63a29.5,29.5,0,0,1-8.22.81q-8.47,0-8.47-3.37a1.76,1.76,0,0,1,.35-1.22,4.85,4.85,0,0,1,1.55-.9,2.69,2.69,0,0,0,1.56-2.18,29.6,29.6,0,0,0,.42-5.13,2.51,2.51,0,0,0-.43-1.69,2,2,0,0,0-1.55-.46,6.3,6.3,0,0,1-1.68-.13c-.25-.09-.36-.3-.35-.65l.2-3.07a1.45,1.45,0,0,1,.26-.94,2.26,2.26,0,0,1,1.16-.24c.6,0,.9-.32.9-.88a5,5,0,0,0-.66-1.56,8.27,8.27,0,0,1-1.12-4.05,6.27,6.27,0,0,1,2.05-4.86q3-2.76,8.62-2.76a11.56,11.56,0,0,1,7.37,2.17A4.9,4.9,0,0,1,439.94,54a3.71,3.71,0,0,1-1.05,2.67,3.5,3.5,0,0,1-2.61,1.09,5.45,5.45,0,0,1-3.37-1.23,26.45,26.45,0,0,1-1.86-1.92A3,3,0,0,0,429,53.5a1.6,1.6,0,0,0-1.17.49,1.63,1.63,0,0,0-.49,1.2c0,1.28,1.22,2.66,3.66,4.12a9.91,9.91,0,0,1,1.53,1.08,3.5,3.5,0,0,1,.72,1.1C433.31,61.68,433.57,61.78,434,61.78Z" transform="translate(-38.03 -16.91)"/>
    </g>
    <g>
      <path class="cls-2" d="M152.5,89a21.29,21.29,0,0,1,9.18,2.08,8.6,8.6,0,0,0,2.9,1,10.21,10.21,0,0,0,1.89-.29,3.93,3.93,0,0,1,.94-.1,3.76,3.76,0,0,1,3,1.56,14.25,14.25,0,0,1,3.12,9.38q0,3.95-2.7,5.76a5.81,5.81,0,0,1-3.29,1,4.65,4.65,0,0,1-2.7-.72,6.92,6.92,0,0,1-2-2.54,28.3,28.3,0,0,0-2.28-3.69,10.24,10.24,0,0,0-2.15-2,11.37,11.37,0,0,0-6.61-2.21,6.51,6.51,0,0,0-5.32,2.42,10,10,0,0,0-2,6.5,19.38,19.38,0,0,0,2.83,10.26,12.23,12.23,0,0,0,11,6.22,16.25,16.25,0,0,0,5.22-.88,10.64,10.64,0,0,0,4-2.28,3.4,3.4,0,0,1,2-1.17,2.43,2.43,0,0,1,2,1.05,4.1,4.1,0,0,1,.81,2.56,9.81,9.81,0,0,1-1.14,4.23,10.91,10.91,0,0,1-2.73,3.68,7.14,7.14,0,0,1-2.84,1,14.07,14.07,0,0,0-3.28,1.2,23,23,0,0,1-10,2.32,26.15,26.15,0,0,1-10.85-2.45A23.19,23.19,0,0,1,128,112.17,21.45,21.45,0,0,1,132.44,99a25.12,25.12,0,0,1,10.2-7.91A24.45,24.45,0,0,1,152.5,89Z" transform="translate(-38.03 -16.91)"/>
      <path class="cls-2" d="M197.06,91.49l-.42,13.65c0,1.63.45,2.44,1.49,2.44a2,2,0,0,0,1.53-1.07,9.79,9.79,0,0,1,8.44-4.6,11,11,0,0,1,8.24,3.16,7.93,7.93,0,0,1,1.93,3.32,22.19,22.19,0,0,1,.64,5.51l.29,11.75a5.32,5.32,0,0,0,.41,2.25,6.61,6.61,0,0,0,1.74,1.79,2.23,2.23,0,0,1,.94,1.79q0,3.53-10.61,3.52-9.45,0-9.44-3.29a1.79,1.79,0,0,1,.16-.85q.16-.29,1.14-1.56,1.36-1.78,1.37-9a17.68,17.68,0,0,0-.82-6.31,3.85,3.85,0,0,0-3.84-2.7,3.25,3.25,0,0,0-2.93,1.43,7.71,7.71,0,0,0-.68,3.91V123a40.35,40.35,0,0,0,.39,4.72,7.6,7.6,0,0,0,1.49,2,2.29,2.29,0,0,1,.62,1.6q0,3.68-9.57,3.68-11.2,0-11.2-3.81a2.17,2.17,0,0,1,.36-1.35,8.59,8.59,0,0,1,1.76-1.45q1.23-.88,1.7-4.74a117.4,117.4,0,0,0,.48-12.78,79.75,79.75,0,0,0-.39-9.7,3.33,3.33,0,0,0-.48-1.49,3.66,3.66,0,0,0-1.28-1c-1.35-.69-2-1.49-2-2.41A3,3,0,0,1,180,93.68a22.67,22.67,0,0,1,5.86-2.19,37.22,37.22,0,0,1,9.35-1.62C196.49,89.87,197.1,90.41,197.06,91.49Z" transform="translate(-38.03 -16.91)"/>
      <path class="cls-2" d="M242.76,102.11c1.15,0,1.85.16,2.1.49a8.62,8.62,0,0,1,.66,3.12c.11,1,.45,1.44,1,1.44s.85-.32,1.24-1q2.61-4.06,6.81-4.07a6.52,6.52,0,0,1,4.85,1.92,7.28,7.28,0,0,1,1.5,2.43,8,8,0,0,1-2,8.64,7.1,7.1,0,0,1-5.11,2,6,6,0,0,1-2.79-.58,14.34,14.34,0,0,1-2.94-2.38,1.91,1.91,0,0,0-1.27-.69,1.18,1.18,0,0,0-1.19,1,20.23,20.23,0,0,0-.28,4.31,40.58,40.58,0,0,0,.36,6.71,2.65,2.65,0,0,0,.63,1.35,5,5,0,0,0,1.75.77c2,.58,2.93,1.61,2.93,3.06a3.27,3.27,0,0,1-.95,2.33,4.69,4.69,0,0,1-2.5,1.32,48.84,48.84,0,0,1-9.19.65,29.09,29.09,0,0,1-8.76-1c-1.78-.61-2.67-1.66-2.67-3.16a3.75,3.75,0,0,1,2-3,5,5,0,0,0,1.3-1.12,3.24,3.24,0,0,0,.49-1.39,74.93,74.93,0,0,0,.52-11,4.85,4.85,0,0,0-.33-2.1,2.39,2.39,0,0,0-1.3-1c-1.54-.6-2.31-1.48-2.31-2.63a3.24,3.24,0,0,1,1.6-2.69,19.32,19.32,0,0,1,5.34-2.23A31.53,31.53,0,0,1,242.76,102.11Z" transform="translate(-38.03 -16.91)"/>
      <path class="cls-2" d="M285.1,104.16v18.92a9.77,9.77,0,0,0,.41,3.29,4.46,4.46,0,0,0,1.64,1.92,5.44,5.44,0,0,1,1.35,1.22,2.25,2.25,0,0,1,.34,1.29q0,4.2-10.64,4.2a36.45,36.45,0,0,1-9.09-.91,3.75,3.75,0,0,1-1.84-1.14,2.81,2.81,0,0,1-.7-1.86,2.28,2.28,0,0,1,.36-1.37,10.49,10.49,0,0,1,1.82-1.56,4.17,4.17,0,0,0,1.44-2.44,22.55,22.55,0,0,0,.42-5q0-1.08-.15-4c-.09-2-.16-3.11-.21-3.44a2.72,2.72,0,0,0-1.82-2,2.8,2.8,0,0,1-2-2.6q0-2.06,2.64-3.06a58.6,58.6,0,0,1,7.81-2.38,30.64,30.64,0,0,1,6.45-1C284.5,102.14,285.1,102.82,285.1,104.16ZM278.65,89.9a8.28,8.28,0,0,1,4.5,1.06,3.24,3.24,0,0,1,1.66,2.85,4.46,4.46,0,0,1-2.51,4,18.81,18.81,0,0,1-9.61,2.31,6.81,6.81,0,0,1-3.77-.91A3.65,3.65,0,0,1,267,95.92c0-1.86,1.33-3.33,4-4.39A20.56,20.56,0,0,1,278.65,89.9Z" transform="translate(-38.03 -16.91)"/>
      <path class="cls-2" d="M307.13,101.91a31.5,31.5,0,0,1,5.3.72,7.15,7.15,0,0,0,1.24.13,7.88,7.88,0,0,0,2.15-.58,3.53,3.53,0,0,1,1.27-.3q1.5,0,3,1.92a14.29,14.29,0,0,1,2,3.36,8.25,8.25,0,0,1,.78,3.16,2.88,2.88,0,0,1-.91,2.16,3.17,3.17,0,0,1-2.28.86,3.8,3.8,0,0,1-2-.55,21.17,21.17,0,0,1-2.88-2.44c-1.39-1.35-2.54-2-3.45-2a2.29,2.29,0,0,0-2.25,2.25q0,1.59,3.06,3a28.27,28.27,0,0,1,8.44,5.41,8.23,8.23,0,0,1,2.47,6,9.17,9.17,0,0,1-4,7.56,13.29,13.29,0,0,1-8.37,2.64,45.15,45.15,0,0,1-4.62-.43c-2.11-.24-3.29-.36-3.55-.36a6.26,6.26,0,0,0-1,.1,10.75,10.75,0,0,1-1.37.13,3.51,3.51,0,0,1-2.41-.78,11.13,11.13,0,0,1-2.47-3.79,11.43,11.43,0,0,1-1.14-4.45c0-2,.78-3,2.34-3a2.66,2.66,0,0,1,1.68.6,40.55,40.55,0,0,1,3.21,3.21,11.88,11.88,0,0,0,2.21,2,3.65,3.65,0,0,0,1.89.53,2.54,2.54,0,0,0,1.73-.57,1.92,1.92,0,0,0,.65-1.51c0-1-.84-1.87-2.51-2.67a23.27,23.27,0,0,1-7.57-5.31,9.46,9.46,0,0,1-2.33-6.31,10,10,0,0,1,2.38-6.68A11.47,11.47,0,0,1,307.13,101.91Z" transform="translate(-38.03 -16.91)"/>
      <path class="cls-2" d="M348.75,110.45v11a5,5,0,0,0,1,3.19,3,3,0,0,0,2.46,1.24,7.46,7.46,0,0,0,3.36-1.17,1.82,1.82,0,0,1,1-.29,1.78,1.78,0,0,1,1.43.94,3.5,3.5,0,0,1,.66,2,5.17,5.17,0,0,1-2.22,3.88,16.7,16.7,0,0,1-11.2,3.94,11.81,11.81,0,0,1-8.37-2.95,10.15,10.15,0,0,1-3.16-7.77v-15a1.49,1.49,0,0,0-.18-.93c-.11-.12-.42-.18-.92-.18h-3.36c-.63,0-1-.1-1.2-.31a2.5,2.5,0,0,1-.26-1.45v-1.43a1.63,1.63,0,0,1,.75-1.43l14.91-9.38a2.84,2.84,0,0,1,1.37-.29h2.63a1.31,1.31,0,0,1,1.1.37,2.78,2.78,0,0,1,.27,1.48v4.4a1.86,1.86,0,0,0,.31,1.27,2.09,2.09,0,0,0,1.32.29h6a2,2,0,0,1,1.57.44,3.24,3.24,0,0,1,.36,1.87v1.93a3.76,3.76,0,0,1-.46,2.16,2,2,0,0,1-1.66.6h-5.89a1.28,1.28,0,0,0-1.57,1.57Z" transform="translate(-38.03 -16.91)"/>
      <path class="cls-2" d="M379.41,102.14c1.23,0,1.85.88,1.85,2.64v.55c0,.35,0,.63,0,.85,0,1.17.35,1.76,1,1.76.37,0,1-.47,1.73-1.4a12.44,12.44,0,0,1,4.43-3.21,13.35,13.35,0,0,1,5.47-1.19q5.43,0,7.55,4c.54,1,1,1.46,1.34,1.46s.8-.43,1.69-1.3a13.37,13.37,0,0,1,9.6-4.14,10.17,10.17,0,0,1,6.88,2.31c1.86,1.61,2.8,4,2.8,7.23,0,.7,0,1.87-.07,3.52,0,.56-.06,2.27-.06,5.11,0,1.83,0,3.11,0,3.84,0,.46,0,.79,0,1a5.52,5.52,0,0,0,1.3,3.65,13.82,13.82,0,0,1,1,1.25,1.67,1.67,0,0,1,.18.83q0,4.17-9.8,4.17a19.53,19.53,0,0,1-7-1c-1.77-.7-2.66-1.61-2.66-2.74a2.19,2.19,0,0,1,.18-1c.12-.23.54-.83,1.26-1.81s1-3.85,1-8.89a20.73,20.73,0,0,0-.61-6.12,2.8,2.8,0,0,0-2.87-2,2.9,2.9,0,0,0-1.9.67,3,3,0,0,0-1.09,1.67,37.48,37.48,0,0,0-.33,6.26,53.73,53.73,0,0,0,.34,6.64,10.31,10.31,0,0,0,1.65,3.26,2.2,2.2,0,0,1,.32,1.23q0,3.88-10.13,3.88c-4.06,0-6.79-.31-8.2-.91a2.56,2.56,0,0,1-1.69-2.54,2.2,2.2,0,0,1,.21-1.14,12.23,12.23,0,0,1,1.45-1.5,3.58,3.58,0,0,0,.92-1.29,8.61,8.61,0,0,0,.31-2.2c.16-2.38.23-4.79.23-7.22q0-6.39-3.25-6.39c-1.63,0-2.6.92-2.9,2.74a52.46,52.46,0,0,0-.39,7.36c0,2.39.05,4,.14,4.69a6.93,6.93,0,0,0,.8,2.31,5,5,0,0,1,.78,2.28c0,1.41-1,2.39-3,2.93a27.23,27.23,0,0,1-7.1.88,24.78,24.78,0,0,1-7.36-.8q-2.34-.8-2.34-2.52a1.89,1.89,0,0,1,.31-1.11,9.69,9.69,0,0,1,1.41-1.43,5.52,5.52,0,0,0,1.7-3.68c.24-2.69.35-5.48.35-8.37a21,21,0,0,0-.3-4.32,3.48,3.48,0,0,0-1.32-2,6.67,6.67,0,0,1-1.26-1.14,1.84,1.84,0,0,1-.27-1.07c0-1.45,1.14-2.61,3.42-3.45Q375.31,102.17,379.41,102.14Z" transform="translate(-38.03 -16.91)"/>
      <path class="cls-2" d="M449.85,101.88a15.91,15.91,0,0,1,9.61,2.87,8.38,8.38,0,0,1,2.91,3.5,14.37,14.37,0,0,1,.83,5.42l-.06,4.85c0,3.37.23,5.55.71,6.55a2.25,2.25,0,0,0,.69.91,4.39,4.39,0,0,0,1.36.36A1.19,1.19,0,0,1,467,127.7a5.5,5.5,0,0,1-1.26,3.26,10.26,10.26,0,0,1-3.24,2.83,9.92,9.92,0,0,1-5.11,1.44,6.74,6.74,0,0,1-5.41-2.35c-.45-.56-.87-.85-1.27-.85a3.28,3.28,0,0,0-1.72.82,12.26,12.26,0,0,1-7.39,2.38,11.88,11.88,0,0,1-6.91-1.83,8.57,8.57,0,0,1-2.73-3.14,8.68,8.68,0,0,1-1-4,8.08,8.08,0,0,1,2.73-6q4.28-4.09,12.77-4.13a4.64,4.64,0,0,0,2.38-.38c.32-.24.48-.83.48-1.74a12.76,12.76,0,0,0-.71-5,2.42,2.42,0,0,0-2.35-1.54,2.78,2.78,0,0,0-1.74.58,11,11,0,0,0-1.9,2.15c-1.94,2.76-3.95,4.14-6.06,4.14a3.65,3.65,0,0,1-2.6-1,3.2,3.2,0,0,1-1-2.47,5,5,0,0,1,1.25-3.13,11,11,0,0,1,3.4-2.73A25.86,25.86,0,0,1,449.85,101.88Zm-2.18,18.86a3.24,3.24,0,0,0-2.49,1.17,4.4,4.4,0,0,0-.31,5.32,2.39,2.39,0,0,0,2,1q2.61,0,2.61-4.39a5.33,5.33,0,0,0-.37-2.41A1.57,1.57,0,0,0,447.67,120.74Z" transform="translate(-38.03 -16.91)"/>
      <path class="cls-2" d="M485.42,101.91a31.46,31.46,0,0,1,5.31.72,7.15,7.15,0,0,0,1.24.13,8,8,0,0,0,2.15-.58,3.49,3.49,0,0,1,1.27-.3c1,0,2,.64,3,1.92a14,14,0,0,1,2,3.36,8.25,8.25,0,0,1,.78,3.16,2.84,2.84,0,0,1-.91,2.16,3.17,3.17,0,0,1-2.28.86,3.74,3.74,0,0,1-2-.55,21.17,21.17,0,0,1-2.88-2.44c-1.39-1.35-2.54-2-3.46-2a2.29,2.29,0,0,0-2.24,2.25q0,1.59,3.06,3A28.08,28.08,0,0,1,498.9,119a8.24,8.24,0,0,1,2.48,6,9.18,9.18,0,0,1-4,7.56,13.26,13.26,0,0,1-8.36,2.64,45.52,45.52,0,0,1-4.63-.43c-2.1-.24-3.29-.36-3.55-.36a6.14,6.14,0,0,0-1,.1,10.75,10.75,0,0,1-1.37.13,3.49,3.49,0,0,1-2.41-.78,11.13,11.13,0,0,1-2.48-3.79,11.43,11.43,0,0,1-1.14-4.45c0-2,.79-3,2.35-3a2.66,2.66,0,0,1,1.68.6,41.12,41.12,0,0,1,3.2,3.21,11.88,11.88,0,0,0,2.22,2,3.6,3.6,0,0,0,1.89.53,2.51,2.51,0,0,0,1.72-.57,1.88,1.88,0,0,0,.65-1.51c0-1-.83-1.87-2.5-2.67a23.27,23.27,0,0,1-7.57-5.31,9.41,9.41,0,0,1-2.33-6.31,10,10,0,0,1,2.37-6.68A11.48,11.48,0,0,1,485.42,101.91Z" transform="translate(-38.03 -16.91)"/>
    </g>
    <g>
      <g>
        <path class="cls-3" d="M591.86,105.73c-2.69-1.81-8.51-2.71-10.08,2.81-1,3.69,4,5,3.71,1.3-.31-3.36,1.41-5.69,5.28-3.82,5.73,2.76,1.66,12.29-4.23,13.5-10.75,2.22-16.74-10.53-29.66-12.14a9.73,9.73,0,0,0-1.67-.44c-11.59-1.93-16.67,10.22-29.54,12.69,6.66-2.2,8.52-11.24,3.78-14.41-2.69-1.81-8.52-2.71-10.08,2.81-1,3.69,4,5,3.7,1.3-.3-3.36,1.42-5.69,5.28-3.83,5.74,2.76,1.67,12.3-4.23,13.51a12.56,12.56,0,0,1-7.67-.87,7.28,7.28,0,0,0-.69.67,15.18,15.18,0,0,0,4,1.22h.07a12.41,12.41,0,0,0,1.38.13c15.91,1,22-14.7,33.81-12.26,5.89,1.21,10,10.74,4.23,13.51-3.87,1.86-5.58-.47-5.28-3.83.33-3.67-4.75-2.4-3.7,1.29,1.56,5.53,7.38,4.63,10.08,2.82,4.29-2.89,3.16-10.58-2-13.63,12,3,17.11,14.29,28.32,12.42C594.46,119.19,596.92,109.12,591.86,105.73Z" transform="translate(-38.03 -16.91)"/>
        <path class="cls-3" d="M546.6,103.45c-.45-1.62-.9-4.4,1.55-5.88a6.27,6.27,0,0,1,.4-6.34,6.25,6.25,0,0,1-6,2c-.78,2.75-3.32,3.25-5.26,3A5.67,5.67,0,0,1,535,102c1,2,1.58,4.3.29,6.53a7.36,7.36,0,0,1,6.72-1.75C543.16,104,544.72,103.37,546.6,103.45Z" transform="translate(-38.03 -16.91)"/>
        <path class="cls-3" d="M562,97c.94.71,2.62,1.72,4.21.52a4.36,4.36,0,0,0,4.2,1.4,4.34,4.34,0,0,0-2.88,3.36c-2-.22-3,1.3-3.34,2.61a15.92,15.92,0,0,0-8.4-1.92C556,102.85,561.31,99.79,562,97Z" transform="translate(-38.03 -16.91)"/>
        <path class="cls-3" d="M574.16,119.9c-.12.91-.13,2.43,1.3,3a3.39,3.39,0,0,0,.72,3.36,3.41,3.41,0,0,0-3.39-.61,2.43,2.43,0,0,0-3.06-1.2,12.28,12.28,0,0,0-2-6.39C567.83,118.18,572,120.55,574.16,119.9Z" transform="translate(-38.03 -16.91)"/>
        <path class="cls-4" d="M560.71,101.72a34.4,34.4,0,0,0-10.36,3.21,37.69,37.69,0,0,0-9.19,6.46l.3.32a37.76,37.76,0,0,1,9.09-6.38,33.75,33.75,0,0,1,10.22-3.16Z" transform="translate(-38.03 -16.91)"/>
        <path class="cls-4" d="M539.4,103.27c-2.75,2.16-4.25,5.11-5.68,7.92-2.1,4.15-4.05,8-9.71,8.36l0,.45c5.91-.39,7.91-4.34,10.08-8.61,1.4-2.77,2.88-5.67,5.55-7.77Z" transform="translate(-38.03 -16.91)"/>
        <path class="cls-4" d="M571.22,121.37a28.57,28.57,0,0,1-5.6-6.6c-2.13-3.15-4-5.9-8.61-7.29l-.13.43c4.47,1.34,6.29,4,8.37,7.11a29.08,29.08,0,0,0,5.68,6.69Z" transform="translate(-38.03 -16.91)"/>
        <path class="cls-3" d="M543,127c-.39-1-1.23-2.67-3.09-2.5a4.12,4.12,0,0,0-2.66-3.2,4.08,4.08,0,0,0,4-1.25,2.92,2.92,0,0,0,3.95-.43,14.86,14.86,0,0,0,5.75,5.7C550.71,125.27,544.94,125.07,543,127Z" transform="translate(-38.03 -16.91)"/>
        <path class="cls-4" d="M547.74,124.71a16.44,16.44,0,0,0,7.57.65,10,10,0,0,0,4.51-1.85,7.47,7.47,0,0,0,2.66-3.76,9.77,9.77,0,0,0,.22-4.56l-.44.08a9.28,9.28,0,0,1-.21,4.35,7.06,7.06,0,0,1-2.5,3.54,9.77,9.77,0,0,1-4.31,1.77,16,16,0,0,1-7.37-.65Z" transform="translate(-38.03 -16.91)"/>
      </g>
      <g>
        <path class="cls-5" d="M552.49,105.64a1.48,1.48,0,1,0-1.47-1.48A1.48,1.48,0,0,0,552.49,105.64Z" transform="translate(-38.03 -16.91)"/>
        <path class="cls-5" d="M549.22,106.69a1,1,0,1,0-1-1A1,1,0,0,0,549.22,106.69Z" transform="translate(-38.03 -16.91)"/>
        <path class="cls-5" d="M566,117.27a1.48,1.48,0,1,0-1.48-1.48A1.49,1.49,0,0,0,566,117.27Z" transform="translate(-38.03 -16.91)"/>
        <path class="cls-5" d="M563.26,113.08a1,1,0,1,0-1-1A1,1,0,0,0,563.26,113.08Z" transform="translate(-38.03 -16.91)"/>
        <path class="cls-5" d="M553.18,126.56a1,1,0,0,0,0-2.07,1,1,0,1,0,0,2.07Z" transform="translate(-38.03 -16.91)"/>
        <path class="cls-5" d="M537.72,116.48a2,2,0,1,0-2-2A2,2,0,0,0,537.72,116.48Z" transform="translate(-38.03 -16.91)"/>
        <path class="cls-5" d="M534.28,111.61a1,1,0,1,0-1-1A1,1,0,0,0,534.28,111.61Z" transform="translate(-38.03 -16.91)"/>
        <path class="cls-5" d="M522.07,121.74a2,2,0,1,0-2-2A2,2,0,0,0,522.07,121.74Z" transform="translate(-38.03 -16.91)"/>
        <path class="cls-5" d="M517.88,120.2a1,1,0,1,0-1-1A1,1,0,0,0,517.88,120.2Z" transform="translate(-38.03 -16.91)"/>
        <path class="cls-5" d="M578.61,121.25a2,2,0,1,0-2-2A2,2,0,0,0,578.61,121.25Z" transform="translate(-38.03 -16.91)"/>
        <path class="cls-5" d="M584.26,121.49a1.48,1.48,0,1,0-1.48-1.47A1.47,1.47,0,0,0,584.26,121.49Z" transform="translate(-38.03 -16.91)"/>
        <path class="cls-5" d="M589.11,120.1a1,1,0,1,0,0-2.07,1,1,0,0,0,0,2.07Z" transform="translate(-38.03 -16.91)"/>
      </g>
    </g>
    <g>
      <g>
        <path class="cls-3" d="M40.68,105.73c2.69-1.81,8.51-2.71,10.07,2.81,1,3.69-4,5-3.7,1.3.31-3.36-1.41-5.69-5.28-3.82-5.73,2.76-1.66,12.29,4.23,13.5,10.75,2.22,16.74-10.53,29.66-12.14a9.73,9.73,0,0,1,1.67-.44C88.92,105,94,117.16,106.87,119.63c-6.66-2.2-8.52-11.24-3.78-14.41,2.69-1.81,8.52-2.71,10.08,2.81,1,3.69-4,5-3.7,1.3.3-3.36-1.42-5.69-5.29-3.83-5.73,2.76-1.66,12.3,4.24,13.51a12.56,12.56,0,0,0,7.67-.87,7.28,7.28,0,0,1,.69.67,15.18,15.18,0,0,1-4,1.22h-.07a12.41,12.41,0,0,1-1.38.13c-15.91,1-22-14.7-33.81-12.26-5.89,1.21-10,10.74-4.23,13.51,3.87,1.86,5.58-.47,5.28-3.83-.33-3.67,4.74-2.4,3.7,1.29-1.56,5.53-7.38,4.63-10.08,2.82-4.29-2.89-3.16-10.58,2-13.63-12,3-17.11,14.29-28.32,12.42C38.08,119.19,35.62,109.12,40.68,105.73Z" transform="translate(-38.03 -16.91)"/>
        <path class="cls-3" d="M85.94,103.45c.45-1.62.9-4.4-1.55-5.88a6.29,6.29,0,0,0-.4-6.34,6.25,6.25,0,0,0,6,2c.78,2.75,3.32,3.25,5.26,3A5.67,5.67,0,0,0,97.51,102c-1,2-1.58,4.3-.29,6.53a7.36,7.36,0,0,0-6.72-1.75C89.38,104,87.82,103.37,85.94,103.45Z" transform="translate(-38.03 -16.91)"/>
        <path class="cls-3" d="M70.53,97c-.94.71-2.62,1.72-4.21.52a4.36,4.36,0,0,1-4.2,1.4A4.34,4.34,0,0,1,65,102.24c2-.22,3,1.3,3.34,2.61a15.92,15.92,0,0,1,8.4-1.92C76.56,102.85,71.22,99.79,70.53,97Z" transform="translate(-38.03 -16.91)"/>
        <path class="cls-3" d="M58.38,119.9c.11.91.13,2.43-1.3,3a3.39,3.39,0,0,1-.72,3.36,3.41,3.41,0,0,1,3.39-.61,2.43,2.43,0,0,1,3.06-1.2,12.28,12.28,0,0,1,2-6.39C64.71,118.18,60.56,120.55,58.38,119.9Z" transform="translate(-38.03 -16.91)"/>
        <path class="cls-4" d="M71.83,101.72a34.4,34.4,0,0,1,10.36,3.21,37.88,37.88,0,0,1,9.19,6.46l-.3.32A37.76,37.76,0,0,0,82,105.33a33.75,33.75,0,0,0-10.22-3.16Z" transform="translate(-38.03 -16.91)"/>
        <path class="cls-4" d="M93.14,103.27c2.75,2.16,4.25,5.11,5.68,7.92,2.1,4.15,4.05,8,9.71,8.36l0,.45c-5.91-.39-7.92-4.34-10.08-8.61-1.41-2.77-2.88-5.67-5.55-7.77Z" transform="translate(-38.03 -16.91)"/>
        <path class="cls-4" d="M61.32,121.37a28.57,28.57,0,0,0,5.6-6.6c2.13-3.15,4-5.9,8.61-7.29l.13.43c-4.47,1.34-6.29,4-8.37,7.11a29.08,29.08,0,0,1-5.68,6.69Z" transform="translate(-38.03 -16.91)"/>
        <path class="cls-3" d="M89.56,127c.39-1,1.23-2.67,3.09-2.5a4.12,4.12,0,0,1,2.66-3.2,4.07,4.07,0,0,1-4-1.25,2.93,2.93,0,0,1-4-.43,14.85,14.85,0,0,1-5.74,5.7C81.83,125.27,87.6,125.07,89.56,127Z" transform="translate(-38.03 -16.91)"/>
        <path class="cls-4" d="M84.8,124.71a16.44,16.44,0,0,1-7.57.65,10,10,0,0,1-4.51-1.85,7.47,7.47,0,0,1-2.66-3.76,9.77,9.77,0,0,1-.22-4.56l.44.08a9.16,9.16,0,0,0,.21,4.35,7.06,7.06,0,0,0,2.5,3.54,9.77,9.77,0,0,0,4.31,1.77,16,16,0,0,0,7.37-.65Z" transform="translate(-38.03 -16.91)"/>
      </g>
      <g>
        <path class="cls-5" d="M80,105.64a1.48,1.48,0,1,1,1.48-1.48A1.48,1.48,0,0,1,80,105.64Z" transform="translate(-38.03 -16.91)"/>
        <path class="cls-5" d="M83.32,106.69a1,1,0,1,1,1-1A1,1,0,0,1,83.32,106.69Z" transform="translate(-38.03 -16.91)"/>
        <path class="cls-5" d="M66.53,117.27A1.48,1.48,0,1,1,68,115.79,1.49,1.49,0,0,1,66.53,117.27Z" transform="translate(-38.03 -16.91)"/>
        <path class="cls-5" d="M69.28,113.08a1,1,0,1,1,1-1A1,1,0,0,1,69.28,113.08Z" transform="translate(-38.03 -16.91)"/>
        <path class="cls-5" d="M79.36,126.56a1,1,0,0,1,0-2.07,1,1,0,1,1,0,2.07Z" transform="translate(-38.03 -16.91)"/>
        <path class="cls-5" d="M94.82,116.48a2,2,0,1,1,2-2A2,2,0,0,1,94.82,116.48Z" transform="translate(-38.03 -16.91)"/>
        <path class="cls-5" d="M98.26,111.61a1,1,0,1,1,1-1A1,1,0,0,1,98.26,111.61Z" transform="translate(-38.03 -16.91)"/>
        <path class="cls-5" d="M110.47,121.74a2,2,0,1,1,2-2A2,2,0,0,1,110.47,121.74Z" transform="translate(-38.03 -16.91)"/>
        <path class="cls-5" d="M114.66,120.2a1,1,0,1,1,1-1A1,1,0,0,1,114.66,120.2Z" transform="translate(-38.03 -16.91)"/>
        <path class="cls-5" d="M53.93,121.25a2,2,0,1,1,2-2A2,2,0,0,1,53.93,121.25Z" transform="translate(-38.03 -16.91)"/>
        <path class="cls-5" d="M48.28,121.49A1.48,1.48,0,1,1,49.76,120,1.48,1.48,0,0,1,48.28,121.49Z" transform="translate(-38.03 -16.91)"/>
        <path class="cls-5" d="M43.43,120.1a1,1,0,1,1,0-2.07,1,1,0,0,1,0,2.07Z" transform="translate(-38.03 -16.91)"/>
      </g>
    </g>
  </g>
  <g>
    <path class="cls-6" d="M241.73,35.36h-9.66c-.85,0-1.27-.24-1.27-.73a1,1,0,0,1,.27-.68q.27-.33,1.74-1.71a23.08,23.08,0,0,0,4.06-4.81,4,4,0,0,0,.68-2,1.51,1.51,0,0,0-.42-1.12,1.46,1.46,0,0,0-1.1-.42,2.13,2.13,0,0,0-1,.18,11.35,11.35,0,0,0-1.51,1.15,1.26,1.26,0,0,1-.82.26,1.83,1.83,0,0,1-1.23-.52,1.54,1.54,0,0,1-.56-1.13,2.21,2.21,0,0,1,.51-1.25,6.32,6.32,0,0,1,1.35-1.33,11.42,11.42,0,0,1,6.79-2.2,9.16,9.16,0,0,1,4.7,1.1,3.87,3.87,0,0,1,1.85,3.26q0,2.48-3.43,5.39c-.81.68-1.22,1.19-1.22,1.53a.83.83,0,0,0,.37.67,1.51,1.51,0,0,0,.9.28,3.05,3.05,0,0,0,2.22-1,5.57,5.57,0,0,1,.66-.58.83.83,0,0,1,.45-.1c.83,0,1.25.71,1.25,2.13a6.11,6.11,0,0,1-.41,2.15,5.88,5.88,0,0,1-1.1,1.89,2.11,2.11,0,0,1-1.61.85,1,1,0,0,1-.57-.15,2,2,0,0,1-.48-.56,1.36,1.36,0,0,0-.51-.51A2.61,2.61,0,0,0,241.73,35.36Z" transform="translate(-38.03 -16.91)"/>
    <path class="cls-6" d="M256.38,19a8,8,0,0,1,3.74,1,8.13,8.13,0,0,1,3.64,3.8,8.85,8.85,0,0,1,.9,3.93,8,8,0,0,1-8,8.07,7.58,7.58,0,0,1-5.36-2.06,8.41,8.41,0,0,1-2.62-6.48,8.13,8.13,0,0,1,2.4-6.21A7.41,7.41,0,0,1,256.38,19Zm-.33,4.23c-.88,0-1.32.75-1.32,2.24a12.1,12.1,0,0,0,1.12,5.27,1.32,1.32,0,0,0,1.18.91q1.29,0,1.29-2.28a14.21,14.21,0,0,0-.28-2.73,10,10,0,0,0-.7-2.36A1.53,1.53,0,0,0,256.05,23.22Z" transform="translate(-38.03 -16.91)"/>
    <path class="cls-6" d="M273.8,19a8,8,0,0,1,3.75,1,8.18,8.18,0,0,1,3.64,3.8,8.84,8.84,0,0,1,.89,3.93,8,8,0,0,1-8,8.07,7.56,7.56,0,0,1-5.36-2.06,8.37,8.37,0,0,1-2.62-6.48A8.16,8.16,0,0,1,268.51,21,7.42,7.42,0,0,1,273.8,19Zm-.32,4.23c-.88,0-1.32.75-1.32,2.24a12,12,0,0,0,1.12,5.27,1.31,1.31,0,0,0,1.18.91q1.29,0,1.29-2.28a15.06,15.06,0,0,0-.28-2.73,10.48,10.48,0,0,0-.7-2.36A1.53,1.53,0,0,0,273.48,23.22Z" transform="translate(-38.03 -16.91)"/>
    <path class="cls-6" d="M289.87,16.91a7.83,7.83,0,0,1,2,.44,4.92,4.92,0,0,1,1.26.58c.34.23.51.43.51.61a.7.7,0,0,1-.16.43c-.11.15-.46.55-1,1.22a6.36,6.36,0,0,0-1,1.47A3.24,3.24,0,0,0,291,23a.57.57,0,0,0,.13.37.4.4,0,0,0,.31.15,5.56,5.56,0,0,0,1-.32,6.57,6.57,0,0,1,2.21-.42,5.17,5.17,0,0,1,3.24,1.13A5.11,5.11,0,0,1,300,28.13a7.4,7.4,0,0,1-1.25,4.05,7.54,7.54,0,0,1-6.79,3.56,8.49,8.49,0,0,1-6-2.15,8,8,0,0,1-2-3,8.42,8.42,0,0,1-.58-3.05,12.12,12.12,0,0,1,2.88-7.34,18.25,18.25,0,0,1,2.19-2.51A2.37,2.37,0,0,1,289.87,16.91Zm1.54,9.84a1.19,1.19,0,0,0-1,.45,1.86,1.86,0,0,0-.36,1.21,4,4,0,0,0,.83,2.33,2.27,2.27,0,0,0,1.71,1.16,1.29,1.29,0,0,0,.93-.35,1.21,1.21,0,0,0,.36-.91,5.2,5.2,0,0,0-.43-2,3.8,3.8,0,0,0-1-1.53A1.72,1.72,0,0,0,291.41,26.75Z" transform="translate(-38.03 -16.91)"/>
    <path class="cls-6" d="M310,25.23a6.9,6.9,0,0,1,.75.05c1.14.12,2,.18,2.62.18a8.42,8.42,0,0,0,1.33-.07,5,5,0,0,1,.64-.07c.29,0,.44.22.44.65a5.92,5.92,0,0,1-.27,1.56,11.37,11.37,0,0,1-.69,1.82,4,4,0,0,1-.58.9.73.73,0,0,1-.54.24,4.1,4.1,0,0,1-.7-.07,17.87,17.87,0,0,0-2.91-.21,12.44,12.44,0,0,0-1.27.06c-.31,0-.55,0-.71,0-.39,0-.58-.23-.58-.68a6.17,6.17,0,0,1,.33-1.53,9.4,9.4,0,0,1,.65-1.66,3.39,3.39,0,0,1,.68-.94A1.29,1.29,0,0,1,310,25.23Z" transform="translate(-38.03 -16.91)"/>
    <path class="cls-6" d="M334.21,35.36h-9.66c-.85,0-1.27-.24-1.27-.73a1,1,0,0,1,.26-.68c.18-.22.77-.79,1.75-1.71a23,23,0,0,0,4-4.81,3.93,3.93,0,0,0,.68-2,1.5,1.5,0,0,0-.41-1.12,1.46,1.46,0,0,0-1.1-.42,2.2,2.2,0,0,0-1,.18,12.3,12.3,0,0,0-1.5,1.15,1.26,1.26,0,0,1-.82.26A1.83,1.83,0,0,1,324,25a1.54,1.54,0,0,1-.56-1.13,2.21,2.21,0,0,1,.51-1.25,6.32,6.32,0,0,1,1.35-1.33,11.42,11.42,0,0,1,6.79-2.2,9.16,9.16,0,0,1,4.7,1.1,3.87,3.87,0,0,1,1.85,3.26q0,2.48-3.43,5.39c-.81.68-1.22,1.19-1.22,1.53a.83.83,0,0,0,.37.67,1.47,1.47,0,0,0,.89.28,3.06,3.06,0,0,0,2.23-1,5.57,5.57,0,0,1,.66-.58.83.83,0,0,1,.45-.1c.83,0,1.24.71,1.24,2.13a6.4,6.4,0,0,1-1.5,4,2.12,2.12,0,0,1-1.62.85,1,1,0,0,1-.56-.15,1.89,1.89,0,0,1-.48-.56,1.36,1.36,0,0,0-.51-.51A2.61,2.61,0,0,0,334.21,35.36Z" transform="translate(-38.03 -16.91)"/>
    <path class="cls-6" d="M348.86,19a8,8,0,0,1,3.74,1,8.18,8.18,0,0,1,3.64,3.8,8.85,8.85,0,0,1,.9,3.93,8,8,0,0,1-8,8.07,7.56,7.56,0,0,1-5.36-2.06,8.37,8.37,0,0,1-2.62-6.48,8.13,8.13,0,0,1,2.4-6.21A7.39,7.39,0,0,1,348.86,19Zm-.33,4.23c-.88,0-1.32.75-1.32,2.24a12,12,0,0,0,1.12,5.27,1.32,1.32,0,0,0,1.18.91q1.29,0,1.29-2.28a14.21,14.21,0,0,0-.28-2.73,10,10,0,0,0-.7-2.36A1.53,1.53,0,0,0,348.53,23.22Z" transform="translate(-38.03 -16.91)"/>
    <path class="cls-6" d="M359.33,32.59c.14,0,.45,0,.94.1a3.36,3.36,0,0,0,.54.06c.8,0,1.27-.63,1.39-1.9.06-.72.1-2.76.1-6.13a1.47,1.47,0,0,0-.31-1.06,1.66,1.66,0,0,0-1.14-.3l-.57,0-.49,0a1.12,1.12,0,0,1-.78-.26.86.86,0,0,1-.3-.69,1.3,1.3,0,0,1,.45-.9,3.94,3.94,0,0,1,1.27-.78A21.52,21.52,0,0,1,369,19.09a4.15,4.15,0,0,1,1.79.29,1,1,0,0,1,.57.93.86.86,0,0,1-.19.58,2.35,2.35,0,0,1-.74.44c-.58.26-.92.57-1,.94a38.67,38.67,0,0,0-.2,4.31c.07,2.53.12,3.89.13,4.07a4.81,4.81,0,0,0,.11.75,1.54,1.54,0,0,0,.64,1,3.77,3.77,0,0,0,1.64.34c.89,0,1.34.4,1.34,1.09s-.63,1.19-1.89,1.42a30.87,30.87,0,0,1-5.39.46,26.66,26.66,0,0,1-3.43-.21,16.53,16.53,0,0,1-3.15-.69c-.73-.27-1.09-.66-1.09-1.19a1,1,0,0,1,.35-.74A1.34,1.34,0,0,1,359.33,32.59Z" transform="translate(-38.03 -16.91)"/>
    <path class="cls-6" d="M381.87,19.09A10.52,10.52,0,0,1,387,20.38a5.89,5.89,0,0,1,3.09,5.56,12.88,12.88,0,0,1-2,6.52,19.88,19.88,0,0,1-5.26,6,2.25,2.25,0,0,1-1.22.51,5,5,0,0,1-2.23-.73c-.91-.49-1.36-.88-1.36-1.18s.28-.48.84-.85a6.07,6.07,0,0,0,1.78-1.88,3.52,3.52,0,0,0,.7-1.75q0-.54-.57-.54c-.13,0-.45,0-1,.08l-.4,0a5.06,5.06,0,0,1-3.64-1.31,6.52,6.52,0,0,1-1.61-2.37,7.46,7.46,0,0,1-.58-2.92,5.44,5.44,0,0,1,2.31-4.69A9.85,9.85,0,0,1,381.87,19.09Zm-.19,4.06a1.25,1.25,0,0,0-1,.51,2,2,0,0,0-.41,1.26,4.36,4.36,0,0,0,.71,2.52,2,2,0,0,0,1.68,1,1.19,1.19,0,0,0,.95-.42A1.65,1.65,0,0,0,384,27a5.4,5.4,0,0,0-.33-1.73,4.55,4.55,0,0,0-.73-1.47A1.59,1.59,0,0,0,381.68,23.15Z" transform="translate(-38.03 -16.91)"/>
  </g>
</svg>
