<svg id="Layer_1" data-name="Layer 1" xmlns="http://www.w3.org/2000/svg" viewBox="0 0 581.33 145.39">
  <defs>
    <style>
      .cls-1, .cls-3 {
        fill: #fff;
      }

      .cls-2, .cls-7 {
        fill: none;
      }

      .cls-2, .cls-3 {
        stroke: #fff;
      }

      .cls-2, .cls-3, .cls-4, .cls-6 {
        stroke-miterlimit: 10;
      }

      .cls-2, .cls-3, .cls-4 {
        stroke-width: 1.25px;
      }

      .cls-4 {
        stroke: #231f20;
      }

      .cls-5, .cls-6 {
        fill: #d72027;
      }

      .cls-6 {
        stroke: #d72027;
        stroke-width: 1.89px;
      }
    </style>
  </defs>
  <title>12pubsxmaslogo01</title>
  <g>
    <g>
      <path class="cls-1" d="M23.29,147.48V54.6H9.34V51.32c5.74-1,13.62-3.61,15.59-10.83h4.43v107Z" transform="translate(-9.34 -27.78)"/>
      <path class="cls-1" d="M62,103.18c-6.89,7-13.95,13.94-13.95,23.79v14.61H80.23v5.9H42v-21c0-12.31,7.06-18.87,16.41-28.39,6.9-7.06,13.95-14,13.95-23.8v-12c0-10.83-3.61-17.23-12.31-17.23s-12.3,6.4-12.3,17.23v6.07H41.66V62.31c0-14.93,6.08-23.14,18.38-23.14s18.38,8.37,18.38,23.14V74.78C78.42,87.09,71.37,93.66,62,103.18Z" transform="translate(-9.34 -27.78)"/>
      <path class="cls-1" d="M128,102.35H118.3v45.13h-6.07v-107H128c13.46,0,19.2,8.69,19.2,22.64V79.71C147.18,93.66,141.44,102.35,128,102.35Zm13.13-38.89c0-11.65-4.43-17.23-13.46-17.23H118.3V96.61h9.35c9,0,13.46-5.41,13.46-17.07Z" transform="translate(-9.34 -27.78)"/>
      <path class="cls-1" d="M239.08,147.48H221.69v-107H237.6c13,0,19.2,7.38,19.2,21.82V72.65c0,10-4.59,16.08-10.33,18.55,6.56,1.64,11.81,7.22,11.81,20v13.62C258.28,138.79,252.54,147.48,239.08,147.48Zm11.65-84.84c0-10.83-4.59-16.41-13.45-16.41h-9.52v42.5h9.52c9.19,0,13.45-6.72,13.45-16.41Zm1.48,48.9c0-11.65-4.43-17.06-13.46-17.06h-11v47.1h11c9,0,13.46-5.42,13.46-17.07Z" transform="translate(-9.34 -27.78)"/>
      <g>
        <g>
          <path class="cls-2" d="M185.32,43.51c-10.58,0-16.47,1.08-18.43,2a113.48,113.48,0,0,0,.19,23.63c.14,1.29.3,2.57.47,3.84.1.84.22,1.67.35,2.51s.24,1.67.37,2.51c.08.43.14.86.21,1.28.16,1,.34,2,.51,3l.75,4.34c.16.94.33,1.9.49,2.85.23,1.33.45,2.64.67,4,.18,1.06.35,2.13.51,3.22.08.49.15,1,.23,1.5,0,.26.08.5.11.75s.08.51.11.76c.07.51.14,1,.2,1.53.14,1,.27,2,.38,3,.1.79.19,1.59.27,2.41,0,.3.06.59.08.89.11,1,.2,2,.26,3q.1,1.26.18,2.55c.05.84.09,1.69.12,2.56.06,1.28.09,2.59.11,3.92a139.41,139.41,0,0,1-.55,14.1c-.54,6.12.17,6.7.4,6.89,2.32,1.89,3,2.46,12,2.46,8.29,0,9.56-.75,11.65-2.46.64-.53.21-5.31.07-6.89a136.7,136.7,0,0,1-.38-19c.05-1.36.14-2.69.25-4,.06-.89.13-1.77.22-2.63s.17-1.78.27-2.64c.75-6.65,1.85-12.81,2.93-18.89.95-5.32,1.88-10.53,2.53-15.9.11-.88.21-1.76.31-2.65s.17-1.75.25-2.64c.11-1.32.19-2.65.25-4a106.6,106.6,0,0,0-.39-15.91C201.35,44.63,195.47,43.51,185.32,43.51Z" transform="translate(-9.34 -27.78)"/>
          <g>
            <path class="cls-3" d="M163.67,70.15c.14,1.29.3,2.57.47,3.84.11.84.23,1.68.36,2.51s.24,1.67.38,2.51c1.65,10.56,3.89,20.75,4.76,32.64.06.84.12,1.68.16,2.54s.09,1.7.12,2.57c0,1.28.08,2.58.08,3.92,0,4.07-.12,8.37-.54,13-.54,6.14-.13,9.07,1.89,10.71,3.06,2.48,4.47,3.17,14,3.17,8.32,0,10.53-.69,13.58-3.17,2-1.64,2.11-4.57,1.56-10.71a133.14,133.14,0,0,1-.32-19.29c.07-1.36.17-2.68.27-4,.08-.89.17-1.77.26-2.64h0c.08-.89.18-1.77.29-2.65,1.46-12.25,4.11-23,5.44-34.77.11-.88.2-1.76.28-2.65s.16-1.75.22-2.63c.1-1.32.18-2.64.23-4a109.74,109.74,0,0,0-.59-17c-.37-3.35-12.71-4.25-21.27-4.25-9.51,0-21.33.9-21.7,4.25A116.08,116.08,0,0,0,163.67,70.15Z" transform="translate(-9.34 -27.78)"/>
            <path class="cls-4" d="M167.08,69.1c.14,1.29.3,2.57.47,3.84.1.84.22,1.67.35,2.51s.24,1.67.37,2.51c.08.43.14.86.21,1.28.16,1,.34,2,.51,3l.75,4.34c.16.94.33,1.9.49,2.85.23,1.33.45,2.64.67,4,.18,1.06.35,2.13.51,3.22.08.49.15,1,.23,1.5,0,.26.08.5.11.75s.08.51.11.76c.07.51.14,1,.2,1.53.14,1,.27,2,.38,3,.1.79.19,1.59.27,2.41,0,.3.06.59.08.89.11,1,.2,2,.26,3q.1,1.26.18,2.55c.05.84.09,1.69.12,2.56.06,1.28.09,2.59.11,3.92a139.41,139.41,0,0,1-.55,14.1c-.54,6.12.17,6.7.4,6.89,2.32,1.89,3,2.46,12,2.46,8.29,0,9.56-.75,11.65-2.46.64-.53.21-5.31.07-6.89a136.7,136.7,0,0,1-.38-19c.05-1.36.14-2.69.25-4,.06-.89.13-1.77.22-2.63s.17-1.78.27-2.64c.75-6.65,1.85-12.81,2.93-18.89.95-5.32,1.88-10.53,2.53-15.9.11-.88.21-1.76.31-2.65s.17-1.75.25-2.64c.11-1.32.19-2.65.25-4a106.6,106.6,0,0,0-.39-15.91c-2-.86-7.84-2-18-2-10.58,0-16.47,1.08-18.43,2A113.48,113.48,0,0,0,167.08,69.1Z" transform="translate(-9.34 -27.78)"/>
          </g>
        </g>
        <path class="cls-1" d="M207.12,43.73c.15-2.1-1.29-7.33-4.46-8.57-1.84-1-1.62-3.72-2.75-3.69-.37,0-.72.33-1.08.55a2.36,2.36,0,0,1-3.05-.51c-1.13-1.12-2.05-3.28-3.29-3.67-1.93-.6-3.68,3.4-5.61,2.83-.65-.19-1.24-.88-1.88-1.14-2.22-.87-4.15,3.56-6.39,4.12-2.86.72-5.67-4.93-8.38-2.89a12.53,12.53,0,0,0-1.6,1.76c-1.24,1.42-1.11,2.11-2.52,2-.54,0-1.33.76-1.87,1.78-.67,1.48-1.88,6.19-1.26,7.44C163,43.79,192.64,40.38,207.12,43.73Z" transform="translate(-9.34 -27.78)"/>
        <path class="cls-1" d="M173.06,42.62c-.29,4.08-1.88,21.11,5.63,52.06.42-26.67.68-52.59.68-52.59Z" transform="translate(-9.34 -27.78)"/>
      </g>
    </g>
    <g>
      <path class="cls-5" d="M381.59,123.23c0-1.71,0-3.17.08-4.38s.18-2.62.38-4.23q.75-5.9,1.06-12.4a72.86,72.86,0,0,1,1.51-12.09A11.25,11.25,0,0,0,385,88a6.09,6.09,0,0,1,.37-1.81,3.72,3.72,0,0,1,2.57-2,4.74,4.74,0,0,1,1.44-.07c.45,0,1,.12,1.59.22a12,12,0,0,1,4.23,1.21,7.67,7.67,0,0,1,2.87,3,3.63,3.63,0,0,0,.46.6,2.62,2.62,0,0,1,.3,1.06,11.49,11.49,0,0,1-.46,4.16,13.65,13.65,0,0,0-.6,3.85c0,.51,0,1.66-.07,3.48s-.08,3.7-.08,5.67,0,3.75.08,5.36a9.51,9.51,0,0,0,.22,2.57,8.24,8.24,0,0,0,1-2.26c.36-1.11.63-1.92.84-2.42q1-2.11,2.34-5.07t2.87-6q1.59-3,3.33-5.67a15.49,15.49,0,0,1,3.55-4,36.64,36.64,0,0,1,3.85-3c1.16-.76,3.05-1,5.67-.83a8.76,8.76,0,0,1,6.43,3.17,12,12,0,0,1,2.64,6.8,35.79,35.79,0,0,1,.08,6.13c-.15,2.06-.33,4.11-.53,6.12l-1.51,11.19c-.2,1.11-.38,2-.53,2.79a8.3,8.3,0,0,0,.08,2.95,4,4,0,0,0,.75-1.28q.15-.54.45-1.44a5.26,5.26,0,0,1,.53-1.21,4.53,4.53,0,0,0,.53-1.36c.71-2,1.41-3.88,2.12-5.59s1.41-3.53,2.12-5.44c.9-2.42,1.94-5.14,3.09-8.17a39.53,39.53,0,0,1,3.86-7.71,15,15,0,0,1,1.74-2.27c.65-.7,1.23-1.36,1.74-2a6.41,6.41,0,0,1,2.19-1.21,7.66,7.66,0,0,1,2.34-.61,15,15,0,0,1,4.76.61A6.12,6.12,0,0,1,457,89.6a7.22,7.22,0,0,1,1.44,3.1c.25,1.21.47,2.62.68,4.23q.15,1.21.3,3.18c.1,1.31.2,2.69.3,4.15s.15,2.88.15,4.24a23.61,23.61,0,0,1-.15,3.09q0,4.55-.38,9t-.75,8.31c-.25,2.57-.41,4.89-.46,7a15,15,0,0,0,.53,4.91q1.06,2,3,.23a24.23,24.23,0,0,0,4.23-5.44q2.26-3.7,4.69-8.62c1.61-3.27,3.09-6.48,4.45-9.6s2.52-5.84,3.48-8.16,1.59-3.78,1.89-4.39a3.19,3.19,0,0,1,1.44-1.21,1.42,1.42,0,0,1,1.74.31c.4.4.58.52.53.37s-.13.18-.23,1c-.1.4-.25.9-.46,1.51a11.78,11.78,0,0,1-1.2,2.34,21.22,21.22,0,0,0-1.36,2.34,11,11,0,0,0-.84,2.72,10.34,10.34,0,0,1-1,2.88q-.9,2.11-2.57,6.95t-3.7,9.83a91.91,91.91,0,0,1-4.31,9.14c-1.51,2.78-3,4.41-4.54,4.92a9.65,9.65,0,0,1-1.51.22,5.76,5.76,0,0,0-1.66.38,10.9,10.9,0,0,1-6.35-.91l-3.33-2.26a14.25,14.25,0,0,1-3.62-4.92,26.28,26.28,0,0,1-2-6,36,36,0,0,1-.91-7q-.15-3.86-.07-7.86t.3-7.86q.22-3.86.53-7.18c.1-.81.25-1.71.45-2.72s.41-2,.61-3a13,13,0,0,0,.3-2.65,2.47,2.47,0,0,0-.6-1.81,15.18,15.18,0,0,0-3,4.91q-1.35,3.26-2.72,7c-.91,2.52-1.76,5-2.57,7.41a57.37,57.37,0,0,1-2.27,5.9,34.92,34.92,0,0,0-1.66,5.21q-.9,3.56-1.89,7.41t-2,7a15.24,15.24,0,0,1-1.59,3.86,4.9,4.9,0,0,1-3,1.66,6.74,6.74,0,0,1-3.55-.38,22.45,22.45,0,0,1-3.25-1.43,10.35,10.35,0,0,1-3.78-4.16,16.13,16.13,0,0,1-1.51-5.37,38.31,38.31,0,0,1-.15-5.89c.1-2,.25-3.93.45-5.75q.15-2.41.53-5.51c.25-2.07.51-4.14.76-6.2s.55-4.11.91-6.12a43.94,43.94,0,0,1,1.28-5.45,14.11,14.11,0,0,0,.76-4.76c-.1-1.06-.41-1.64-.91-1.74s-1.13.21-1.89.91A13.4,13.4,0,0,0,412.74,96c-1.21,2.12-2.25,4-3.1,5.75s-1.66,3.43-2.42,5.14-1.49,3.48-2.19,5.29-1.52,3.78-2.42,5.89a36.7,36.7,0,0,0-1.51,5.22c-.41,1.87-.86,3.65-1.36,5.37a10.4,10.4,0,0,0-.61,3.63,13.75,13.75,0,0,1-.45,3.62c-.21.81-.38,1.44-.53,1.89s-.28.89-.38,1.29a9.72,9.72,0,0,0-.23,1.28c-.05.46-.12,1.09-.22,1.89-.81,1.92-2.57,2.87-5.29,2.87a5.06,5.06,0,0,1-2.72-1q-1.51-1-2.73-1.89a10.9,10.9,0,0,1-3.17-3.85,16.5,16.5,0,0,1-1.44-4.69,35,35,0,0,1-.38-5.21Z" transform="translate(-9.34 -27.78)"/>
      <path class="cls-5" d="M509.94,115.68a3.59,3.59,0,0,0-1.06,1.43c-.3.66-.55,1.24-.76,1.74a33.67,33.67,0,0,1-3.62,6.35c-1.52,2.12-3,4.18-4.39,6.2a2,2,0,0,1-.53.75l-.68.46c-.9.81-1.71,1.51-2.42,2.11a7.28,7.28,0,0,1-2.34,1.37,7.81,7.81,0,0,1-2.95.37,15.17,15.17,0,0,1-4.23-1,6.25,6.25,0,0,0-1.06-.3,3.15,3.15,0,0,1-.9-.46c-.21-.2-.33-.3-.38-.3a2.07,2.07,0,0,1-.53-.3,9.44,9.44,0,0,1-2.87-2.8,23.6,23.6,0,0,1-2.27-3.4,23.14,23.14,0,0,1-1.36-12.62,56.07,56.07,0,0,1,3.47-12.63,11.63,11.63,0,0,1,.76-1.73c.3-.56.61-1.08.91-1.59l3.93-6.5c.91-1.11,2-2.44,3.25-4a14.41,14.41,0,0,1,4-3.55,33.32,33.32,0,0,1,3.4-1.89,17.76,17.76,0,0,1,3.7-1.28,11.58,11.58,0,0,1,3.93-.53,26,26,0,0,1,4.23.53l2.57.68a9.65,9.65,0,0,1,1.44.45c.35.15.73.33,1.13.53s1,.45,1.82.75c1.61.81,2.44,1.62,2.49,2.42a15.13,15.13,0,0,0,.83,3.48l2.12-.3a17,17,0,0,0,2.12,2.34,7.14,7.14,0,0,1,1.81,2.8,13.72,13.72,0,0,1-.15,6.65q-.92,3.93-1.36,6.8a4.33,4.33,0,0,0-.15,1,2.71,2.71,0,0,1-.15.84c-.31,1-.51,1.66-.61,2a2.52,2.52,0,0,0-.15.76c0,.2,0,.5-.07.9s-.13,1.11-.23,2.12a62,62,0,0,1-1.21,7,27,27,0,0,0-.61,5q-.15,3.18,0,6.43a29.47,29.47,0,0,0,.91,6.12,8,8,0,0,0,2.12,4.08,5.88,5.88,0,0,0,2.64-1.36c.46-.5,1.24-1.46,2.35-2.87l2.42-3.4a19.22,19.22,0,0,0,1.43-2.34c.35-.71.73-1.44,1.13-2.2s1-1.79,1.67-3.1c.2-.4.58-1.23,1.13-2.49s1.21-2.77,2-4.53,1.56-3.66,2.42-5.67l2.49-5.9c.7-1.61,1.36-3.1,2-4.46a26.18,26.18,0,0,1,1.74-3.33c.56-.85,1.08-1.33,1.59-1.43s1,.25,1.51,1.06a6.93,6.93,0,0,0-.23,2.19,3.9,3.9,0,0,1-.22,1.74q-3.18,9.06-7.26,18.82a104.35,104.35,0,0,1-9.67,18.06L530.35,147l-.46.45-.6.61a8,8,0,0,1-3.33,2.11,5.82,5.82,0,0,1-3.93.15l-1.36-.22A4.73,4.73,0,0,0,520,150a1.41,1.41,0,0,1-.45-.07,4,4,0,0,1-.68-.38,8.33,8.33,0,0,0-2.12-1.21c-.2,0-.55-.25-1.06-.76l-3-3.93c-.2-.3-.48-.78-.83-1.43a20.82,20.82,0,0,1-1-2.12,19.73,19.73,0,0,1-.76-2.19,6.41,6.41,0,0,1-.3-1.51,7.56,7.56,0,0,0-.23-2.19c-.15-.46-.28-.89-.38-1.29a9.57,9.57,0,0,1-.22-1.44,11.07,11.07,0,0,1,.22-2.64,15.66,15.66,0,0,0,0-3.1,17.36,17.36,0,0,1,0-3.25,19,19,0,0,1,.53-2.65A10.74,10.74,0,0,0,509.94,115.68Zm-20,15.11a9.62,9.62,0,0,0,3.1-1.66,24.81,24.81,0,0,0,3-2.72,36.25,36.25,0,0,0,2.72-3.25c.85-1.16,1.64-2.24,2.34-3.25l5.29-8.16c.2-.31.76-1.26,1.66-2.88s1.84-3.37,2.8-5.29l2.65-5.29a12.33,12.33,0,0,0,1.21-2.87c.2-.81.25-1,.15-.68s-.26.13-.46-.68a2.62,2.62,0,0,1,.08-.61,2,2,0,0,0-.08-.9c-.1-.61-.15-1-.15-1.06s-.25-.2-.45-.61c-.3-.7-.51-1.15-.61-1.36a.89.89,0,0,0-.3-.38l-.37-.15a2.64,2.64,0,0,1-.84-.68,3.17,3.17,0,0,1-1.05-1.21c-.11-.3-.56-.4-1.36-.3a4.29,4.29,0,0,0-2.42,1.29A30.52,30.52,0,0,0,504,91c-1,1.06-1.87,2.12-2.72,3.17a14.87,14.87,0,0,0-1.74,2.5l-4.23,7.1a12,12,0,0,1-.76,1.52c-.3.5-.56,1-.76,1.36a4.78,4.78,0,0,0-.83,1.43,12,12,0,0,1-.68,1.59,12.68,12.68,0,0,0-1,3.17,26.42,26.42,0,0,1-.83,3.33c-.3.91-.61,2-.91,3.4a28.75,28.75,0,0,0-.6,4.16,21.25,21.25,0,0,0,.07,4.08A6.47,6.47,0,0,0,490,130.79Z" transform="translate(-9.34 -27.78)"/>
      <path class="cls-5" d="M560.43,133.36a45.12,45.12,0,0,0-2.49-5.06q-1.29-2.19-2.5-4.08t-2.34-3.86q-1.14-2-2.2-4.23c-.2-.5-.32-.73-.37-.68s-.18-.13-.38-.53L548,111.14c-.5-1.81-1-3.25-1.36-4.31a24.08,24.08,0,0,1-1.06-4.46,34.33,34.33,0,0,1-.52-8,19.94,19.94,0,0,1,2-7.41A21.88,21.88,0,0,1,553,79a19.77,19.77,0,0,1,8-3.86A10.79,10.79,0,0,1,564,75a12.39,12.39,0,0,1,2.5.91A10.06,10.06,0,0,1,569,77.35a7,7,0,0,1,1.74,1.74A14.65,14.65,0,0,1,572,81.74a27.68,27.68,0,0,1,1.14,3.55q.45,1.81.75,3.48A6.19,6.19,0,0,1,574,91c-.6.91-1,1.52-1.28,1.82a3,3,0,0,1-1.89.6c-.3-.1-.53-.42-.68-1s-.3-1.23-.45-2-.33-1.66-.53-2.57a20.89,20.89,0,0,0-.76-2.57q-.6-1.37-.9-2.19a11.79,11.79,0,0,0-.69-1.51,3.87,3.87,0,0,0-1.05-1.21,7.44,7.44,0,0,0-2-1A6,6,0,0,0,561,82a20.25,20.25,0,0,0-1.75,4.23,31.17,31.17,0,0,0-1,4.76A33.55,33.55,0,0,0,558,95a24.43,24.43,0,0,0,1.28,7.86,63.87,63.87,0,0,0,3.1,7.48q1.82,3.7,3.63,7.48a36,36,0,0,1,2.72,7.86,29.59,29.59,0,0,0,4.09-3.85c1.61-1.76,3.24-3.65,4.91-5.67s3.2-4,4.61-5.9,2.52-3.37,3.33-4.38a6.1,6.1,0,0,0,.83-1.06,1.65,1.65,0,0,1,1.13-.75c1.71.1,2.65.4,2.8.9a13,13,0,0,1,.22,3c-1,.3-1.56.7-1.66,1.21a4.79,4.79,0,0,1-1.21,2,4.15,4.15,0,0,0-.83,1,7,7,0,0,1-.53,1l-6.95,8.46c-.81.81-1.54,1.59-2.19,2.35a30.9,30.9,0,0,1-2.5,2.49c-.91,1-1.66,1.79-2.27,2.34a11.92,11.92,0,0,0-1.36,1.44,3.33,3.33,0,0,0-.6,1.28,3.54,3.54,0,0,0,.15,1.74,18.65,18.65,0,0,1,.15,5.37,55.78,55.78,0,0,1-1,6.27,49.84,49.84,0,0,1-1.74,6.13,26.74,26.74,0,0,1-2.27,4.91,10.13,10.13,0,0,1-2.64,3.17,13.09,13.09,0,0,1-4,1.82,8.39,8.39,0,0,1-6.43-.46,7.31,7.31,0,0,1-4-5,10.25,10.25,0,0,1,.3-6.5,27.88,27.88,0,0,1,3.25-6.27,42.51,42.51,0,0,1,4.39-5.37Q559.07,134.88,560.43,133.36Zm1.66,5.14a13.89,13.89,0,0,0-2.72,2.42,30.59,30.59,0,0,0-2.87,3.71,41.55,41.55,0,0,0-2.42,4.08,14.42,14.42,0,0,0-1.36,3.4,3.26,3.26,0,0,0,.23,2.72,5,5,0,0,0,1.73,1.66A4,4,0,0,0,557,157a3.23,3.23,0,0,0,2.12-1,12.89,12.89,0,0,0,2.64-5.06,20.27,20.27,0,0,0,1-5.83c.1-1.1.15-2.29.15-3.55A5.81,5.81,0,0,0,562.09,138.5Z" transform="translate(-9.34 -27.78)"/>
      <g>
        <path class="cls-6" d="M278.37,98.06c-3.34,0-5.75-.94-5.85-4.6C272.43,90,274,86,276.61,81.85a32.45,32.45,0,0,1-5.68-10.56c-4.7,5.34-7.42,10.76-7.3,15.48.21,8.89,13.28,16,19.87,16a30.72,30.72,0,0,0,9.4-1.81l-4.46-5.19C283.59,97.4,280.09,98.06,278.37,98.06Z" transform="translate(-9.34 -27.78)"/>
        <path class="cls-6" d="M330,73.7c1.36-1.57,0-1.36-.94-.73-13.46,10.24-25.28,16.6-34.25,20.36L299,98.17l.16.21C307.64,94.3,318.31,86.81,330,73.7Z" transform="translate(-9.34 -27.78)"/>
        <path class="cls-7" d="M276.61,81.85C274,86,272.43,90,272.52,93.46c.1,3.66,2.51,4.6,5.85,4.6,1.72,0,5.22-.66,10.07-2.29l-9.63-11.22C278.05,83.67,277.32,82.77,276.61,81.85Z" transform="translate(-9.34 -27.78)"/>
        <path class="cls-7" d="M306.71,66.83h-6.07V62.4c0-1,0-1.92-.09-2.84a87.11,87.11,0,0,0-19.94,16.93c.76,1.06,1.57,2.11,2.47,3.14l11.76,13.7c9-3.76,20.79-10.12,34.25-20.36.94-.63,2.3-.84.94.73-11.72,13.11-22.39,20.6-30.87,24.68a37.24,37.24,0,0,1,7.16,13.05c11.31-8.8,23.66-17.66,35.42-25.6.84-8.16,2-18.3,1.78-23.84-.21-8.16-1.46-13.28-11.5-13.28-8,0-17.06,2.94-25.62,7.47a54.74,54.74,0,0,1,.31,5.89Z" transform="translate(-9.34 -27.78)"/>
        <path class="cls-7" d="M286.39,141.38a14.64,14.64,0,0,0,1.78.12c8,0,13-6.72,13.68-16.52C296.07,130.67,290.82,136.24,286.39,141.38Z" transform="translate(-9.34 -27.78)"/>
        <path class="cls-7" d="M288.66,43.53c-9,0-13,7.71-13,18.87a22.34,22.34,0,0,0,.36,3.79,87.14,87.14,0,0,1,23.16-14.36C297.51,46.7,294.18,43.53,288.66,43.53Z" transform="translate(-9.34 -27.78)"/>
        <path class="cls-1" d="M280.61,76.49a50.62,50.62,0,0,0-4,5.36c.71.92,1.44,1.82,2.2,2.7l9.63,11.22c1.93-.65,4.06-1.45,6.4-2.44l-11.76-13.7C282.18,78.6,281.37,77.55,280.61,76.49Z" transform="translate(-9.34 -27.78)"/>
        <path class="cls-1" d="M277.9,135.82c-2-3.25-3-7.79-3-13.36v-4.59H268.8v4.92c0,7.46,1.63,13.41,4.71,17.58Q275.54,138.17,277.9,135.82Z" transform="translate(-9.34 -27.78)"/>
        <path class="cls-6" d="M300.55,59.56a30.11,30.11,0,0,0-1.34-7.73,87.14,87.14,0,0,0-23.16,14.36,24.91,24.91,0,0,0,4.56,10.3A87.11,87.11,0,0,1,300.55,59.56Z" transform="translate(-9.34 -27.78)"/>
        <path class="cls-6" d="M286.39,141.38c4.43-5.14,9.68-10.71,15.46-16.4.06-.82.1-1.66.1-2.52a28.33,28.33,0,0,0-.91-6.87,299.91,299.91,0,0,0-23.14,20.23A11.24,11.24,0,0,0,286.39,141.38Z" transform="translate(-9.34 -27.78)"/>
        <path class="cls-6" d="M273.51,140.37c-4.68,5.1-7.92,9.59-9.15,13.11-3.34,9.83,7.43,17.05,13.39,18.62,5,1.25,16.2-7.22,23.32-14.54.83-.73-.21-.94-1.16-.42-7,4-19.86,10.46-25.51,10.46a2.25,2.25,0,0,1-2.51-2.51c-.11-3.76,3.8-10.47,10.32-18.66A16.2,16.2,0,0,1,273.51,140.37Z" transform="translate(-9.34 -27.78)"/>
        <path class="cls-6" d="M431.78,59.58c-.32-2.82-1.15-7.42-3.77-11.19-1.67-2.61-4.91-5.33-7.63-5.33-15,0-45.59,20.49-67.34,35l1.25-8.78c.73-7.74-7.63-24.26-24.16-24.26a76.9,76.9,0,0,0-25.08,4.52,33.86,33.86,0,0,1,1.35,6.61C315,51.65,324,48.71,332,48.71c10,0,11.29,5.12,11.5,13.28.21,5.54-.94,15.68-1.78,23.84-11.76,7.94-24.11,16.8-35.42,25.6a36.76,36.76,0,0,1,1.54,7.77A369.78,369.78,0,0,1,341,91.47c-2.4,19.87-5.75,42.56-4.39,53.44,1,8.36,10,15.37,22.58,15.37,3.87,0,15.48-11.82,17.15-15.06a.38.38,0,0,0-.52-.52c-15.47,10.25-20.6,10.66-23.32,10.66-3.87,0-4.81-4.28-5-11-.41-16.42,2.41-41.1,4.92-60.86,17-11.3,46.84-31.79,64.62-31.79,6.69,0,10.77,2.93,14.12,8.15C431.67,60.63,431.88,60.42,431.78,59.58Z" transform="translate(-9.34 -27.78)"/>
        <path class="cls-1" d="M301,115.59a28.33,28.33,0,0,1,.91,6.87c0,.86,0,1.7-.1,2.52q2.92-2.87,6-5.78a36.76,36.76,0,0,0-1.54-7.77Q303.64,113.51,301,115.59Z" transform="translate(-9.34 -27.78)"/>
        <path class="cls-1" d="M300.55,59.56c1.91-1.2,3.86-2.34,5.85-3.38a33.86,33.86,0,0,0-1.35-6.61q-3,1-5.84,2.26A30.11,30.11,0,0,1,300.55,59.56Z" transform="translate(-9.34 -27.78)"/>
        <path class="cls-1" d="M299,98.17l-4.16-4.84c-2.34,1-4.47,1.79-6.4,2.44L292.9,101a54.27,54.27,0,0,0,6.26-2.58Z" transform="translate(-9.34 -27.78)"/>
        <path class="cls-1" d="M299.16,98.38A54.27,54.27,0,0,1,292.9,101l1.83,2.14A30.54,30.54,0,0,1,301,115.59q2.59-2.07,5.28-4.16A37.24,37.24,0,0,0,299.16,98.38Z" transform="translate(-9.34 -27.78)"/>
        <path class="cls-1" d="M288.17,141.5a14.64,14.64,0,0,1-1.78-.12q-2.24,2.61-4.18,5.05a21.58,21.58,0,0,0,6,.81c12.63,0,19.85-10.34,19.85-24.62,0-1.16-.06-2.3-.16-3.42q-3.09,2.91-6,5.78C301.13,134.78,296.19,141.5,288.17,141.5Z" transform="translate(-9.34 -27.78)"/>
        <path class="cls-6" d="M277.9,135.82q-2.37,2.34-4.39,4.55a16.2,16.2,0,0,0,8.7,6.06q1.95-2.44,4.18-5.05A11.24,11.24,0,0,1,277.9,135.82Z" transform="translate(-9.34 -27.78)"/>
        <path class="cls-1" d="M300.64,62.4v4.43h6.07V62.07a54.74,54.74,0,0,0-.31-5.89c-2,1-3.94,2.18-5.85,3.38C300.6,60.48,300.64,61.42,300.64,62.4Z" transform="translate(-9.34 -27.78)"/>
        <path class="cls-1" d="M276.05,66.19a22.34,22.34,0,0,1-.36-3.79c0-11.16,3.94-18.87,13-18.87,5.52,0,8.85,3.17,10.55,8.3q2.87-1.23,5.84-2.26c-2.43-7.58-7.65-12-16.39-12-12.8,0-19,9.52-19,24.61a30.77,30.77,0,0,0,1.31,9.06A57.36,57.36,0,0,1,276.05,66.19Z" transform="translate(-9.34 -27.78)"/>
        <path class="cls-6" d="M280.61,76.49a24.91,24.91,0,0,1-4.56-10.3,57.36,57.36,0,0,0-5.12,5.1,32.45,32.45,0,0,0,5.68,10.56A50.62,50.62,0,0,1,280.61,76.49Z" transform="translate(-9.34 -27.78)"/>
      </g>
    </g>
  </g>
</svg>
