<?xml version="1.0" encoding="utf-8"?>
<!-- Generator: Adobe Illustrator 24.0.0, SVG Export Plug-In . SVG Version: 6.00 Build 0)  -->
<svg version="1.1" id="Layer_1" xmlns="http://www.w3.org/2000/svg" xmlns:xlink="http://www.w3.org/1999/xlink" x="0px" y="0px"
	 viewBox="0 0 222.9 280" style="enable-background:new 0 0 222.9 280;" xml:space="preserve">
<style type="text/css">
	.st0{fill:#FFFFFF;}
	.st1{fill:#231F20;}
	.st2{fill:#FFFFFF;stroke:#231F20;stroke-width:10.1334;stroke-miterlimit:10;}
</style>
<title>full-pint</title>
<g>
	<polygon class="st0" points="44.9,19.1 44.9,60 67.8,170 67.8,255.4 79.2,262.8 114,266 142.3,262.4 153.7,257.8 153.7,182.5 
		175.4,88.1 175.4,22.5 	"/>
	<g>
		<g>
			<path class="st1" d="M169.2,23.9c1.2,8.9,2.8,26.2,1.3,37.1c-0.4,3.2-0.5,6.6-0.8,9.8c-0.2,2.2-0.5,4.3-0.8,6.5s-0.6,4.3-1,6.5
				c-2.1,13.2-5,26-8,39c-3.5,14.9-6.9,30.1-9.3,46.4c-0.3,2.2-0.6,4.3-0.9,6.5s-0.5,4.3-0.7,6.5c-0.4,3.2-0.6,6.5-0.8,9.8
				c-1,15.5-0.6,31.1,1.2,46.6c0.5,3.9,1.8,15.6-0.2,16.9c-6.6,4.2-10.7,6-37,6c-28.7,0-30.9-1.4-38.2-6c-0.7-0.5-3-1.9-1.3-16.9
				c1.3-11.5,1.9-23.1,1.7-34.6c0-3.2-0.1-6.5-0.3-9.6c-0.1-2.2-0.2-4.2-0.4-6.3c-0.2-2.1-0.3-4.2-0.6-6.3c-0.2-2.5-0.5-5-0.8-7.4
				c-0.1-0.7-0.2-1.5-0.3-2.2c-0.2-2-0.5-4-0.8-5.9c-0.4-2.5-0.8-5-1.2-7.5c-0.2-1.3-0.4-2.5-0.6-3.7c-0.1-0.6-0.2-1.2-0.3-1.9
				c-0.1-0.6-0.2-1.2-0.3-1.8c-0.2-1.2-0.5-2.5-0.7-3.7c-0.5-2.7-1.1-5.3-1.6-7.9c-0.7-3.3-1.4-6.5-2.2-9.8c-0.5-2.4-1-4.7-1.5-7
				c-0.8-3.6-1.6-7.1-2.4-10.6c-0.6-2.5-1.1-5-1.6-7.5c-0.2-1.1-0.4-2.1-0.7-3.1c-0.4-2.1-0.8-4.1-1.2-6.2c-0.4-2.1-0.8-4.1-1.1-6.2
				c-0.5-3.1-1.1-6.3-1.5-9.4c-2.7-18.7-3-37.7-0.8-56.4c-3.6-0.3-7.2-0.5-10.9-0.6c-2.3,19.6-2,39.3,0.9,58.8
				c0.5,3.2,0.9,6.3,1.5,9.4c0.4,2.1,0.7,4.1,1.1,6.2c0.4,2,0.8,4.1,1.2,6.2c5.2,25.9,12.3,51,15.1,80.2c0.2,2.1,0.4,4.1,0.5,6.3
				s0.3,4.2,0.4,6.3c0.1,3.1,0.2,6.4,0.2,9.6c0.1,10.6-0.5,21.3-1.7,31.8c-1.7,15.1-0.4,22.3,6,26.3c9.7,6.1,14.2,7.8,44.4,7.8
				c26.4,0,33.5-1.7,43.2-7.8c6.4-4,6.7-11.2,4.9-26.3c-1.8-15.7-2.2-31.6-1-47.4c0.2-3.3,0.5-6.6,0.9-9.8c0.2-2.2,0.5-4.3,0.8-6.5
				l0,0c0.3-2.2,0.6-4.3,0.9-6.5c4.6-30.1,13.1-56.4,17.3-85.4c0.3-2.2,0.6-4.3,0.9-6.5s0.5-4.3,0.7-6.5c0.3-3.2,0.6-6.5,0.7-9.8
				c0.6-11.8,0.3-23.6-0.9-35.3C176.8,24,173,24,169.2,23.9z"/>
		</g>
		<ellipse class="st2" cx="111.4" cy="22.5" rx="64" ry="14.1"/>
	</g>
</g>
</svg>
